<?xml version="1.0" encoding="utf-8"?>
<!-- Generator: Adobe Illustrator 16.0.4, SVG Export Plug-In . SVG Version: 6.00 Build 0)  -->
<!DOCTYPE svg PUBLIC "-//W3C//DTD SVG 1.1//EN" "http://www.w3.org/Graphics/SVG/1.1/DTD/svg11.dtd">
<svg version="1.1" id="Layer_1" xmlns="http://www.w3.org/2000/svg" xmlns:xlink="http://www.w3.org/1999/xlink" x="0px" y="0px"
	 width="364.704px" height="57.918px" viewBox="0 0 364.704 57.918" enable-background="new 0 0 364.704 57.918"
	 xml:space="preserve">
<path fill="#8B6A29" d="M31.27,1.1v9.248H11.286v13.166h18.808v9.246H11.286v24.297H0V1.102h31.27V1.1z"/>
<path fill="#8B6A29" d="M36.834,1.1h11.284v55.955H36.834V1.1z"/>
<path fill="#8B6A29" d="M87.773,10.348H67.79v13.166h18.808v9.246H67.79v15.049h20.767v9.248H56.504V1.102h31.269L87.773,10.348
	L87.773,10.348z"/>
<path fill="#8B6A29" d="M94.199,1.1h11.286v46.709h19.985v9.248H94.2L94.199,1.1L94.199,1.1z"/>
<path fill="#8B6A29" d="M148.507,1.1c3.918,0,7.079,0.641,9.482,1.922c2.403,1.279,4.272,3.107,5.604,5.484
	c1.333,2.377,2.234,5.24,2.703,8.582c0.47,3.342,0.706,7.08,0.706,11.207c0,4.91-0.301,9.182-0.901,12.812
	c-0.601,3.633-1.634,6.621-3.097,8.975c-1.462,2.35-3.422,4.102-5.877,5.25c-2.456,1.15-5.564,1.725-9.325,1.725h-17.79V1.102
	h18.495V1.1z M146.312,48.748c1.985,0,3.578-0.34,4.78-1.02c1.202-0.678,2.155-1.803,2.86-3.369
	c0.706-1.566,1.176-3.631,1.411-6.191c0.235-2.559,0.354-5.746,0.354-9.561c0-3.186-0.105-5.982-0.313-8.387
	c-0.209-2.402-0.64-4.398-1.293-5.992s-1.62-2.795-2.899-3.607c-1.281-0.809-2.993-1.213-5.133-1.213h-4.781V48.75h5.015V48.748z"/>
<path fill="#261C0F" d="M208.555,14.502c-0.234-1.098-0.614-2.105-1.136-3.018c-0.522-0.914-1.189-1.674-1.999-2.275
	c-0.811-0.598-1.791-0.9-2.939-0.9c-2.717,0-4.676,1.518-5.878,4.545c-1.202,3.031-1.802,8.047-1.802,15.049
	c0,3.342,0.104,6.371,0.312,9.09c0.209,2.715,0.588,5.027,1.137,6.936c0.548,1.906,1.332,3.371,2.351,4.389s2.338,1.527,3.958,1.527
	c0.679,0,1.423-0.184,2.233-0.547c0.81-0.365,1.567-0.916,2.272-1.646s1.294-1.658,1.764-2.783c0.471-1.123,0.706-2.441,0.706-3.957
	v-5.721h-7.445v-8.309h18.261v30.174h-8.307v-5.172h-0.158c-1.359,2.193-2.99,3.75-4.897,4.66c-1.908,0.916-4.192,1.373-6.857,1.373
	c-3.447,0-6.257-0.6-8.424-1.803c-2.169-1.201-3.868-3.057-5.094-5.564c-1.229-2.506-2.052-5.604-2.47-9.285
	c-0.418-3.686-0.626-7.957-0.626-12.816c0-4.701,0.3-8.828,0.901-12.381c0.6-3.551,1.633-6.52,3.096-8.895
	c1.461-2.379,3.395-4.168,5.799-5.369C195.716,0.602,198.721,0,202.325,0c6.165,0,10.605,1.529,13.324,4.584
	c2.717,3.057,4.074,7.434,4.074,13.127h-10.814C208.909,16.668,208.792,15.598,208.555,14.502z"/>
<path fill="#261C0F" d="M238.219,40.129c0,1.41,0.09,2.703,0.273,3.877c0.184,1.178,0.521,2.195,1.02,3.057
	c0.496,0.863,1.175,1.543,2.037,2.039c0.861,0.498,1.946,0.742,3.253,0.742c1.358,0,2.455-0.244,3.292-0.742
	c0.836-0.496,1.501-1.176,1.999-2.039c0.496-0.861,0.835-1.879,1.019-3.057c0.184-1.174,0.275-2.467,0.275-3.877V1.102h11.285
	v39.027c0,3.553-0.497,6.49-1.489,8.816c-0.993,2.324-2.326,4.166-3.997,5.525c-1.673,1.357-3.578,2.271-5.721,2.742
	s-4.363,0.705-6.66,0.705c-2.3,0-4.52-0.209-6.662-0.627c-2.143-0.416-4.05-1.266-5.721-2.545c-1.672-1.283-3.005-3.098-3.996-5.447
	c-0.994-2.354-1.488-5.41-1.488-9.17V1.102h11.285v39.027H238.219z"/>
<path fill="#261C0F" d="M270.35,1.1h11.284v55.955H270.35V1.1z"/>
<g enable-background="new    ">
	<path fill="#261C0F" d="M309.063,1.1c3.918,0,7.079,0.641,9.483,1.922c2.403,1.279,4.271,3.107,5.604,5.484
		c1.332,2.377,2.233,5.24,2.703,8.582s0.706,7.08,0.706,11.207c0,4.91-0.302,9.182-0.902,12.812
		c-0.602,3.633-1.633,6.621-3.096,8.975c-1.463,2.35-3.424,4.102-5.877,5.25c-2.457,1.15-5.564,1.725-9.326,1.725h-17.789V1.102
		h18.494V1.1z M306.869,48.748c1.985,0,3.577-0.34,4.78-1.02c1.201-0.678,2.155-1.803,2.861-3.369
		c0.705-1.566,1.176-3.631,1.41-6.191c0.235-2.559,0.354-5.746,0.354-9.561c0-3.186-0.105-5.982-0.313-8.387
		c-0.21-2.402-0.641-4.398-1.294-5.992c-0.654-1.594-1.62-2.795-2.898-3.607c-1.281-0.809-2.992-1.213-5.134-1.213h-4.78V48.75
		h5.015V48.748z"/>
</g>
<g enable-background="new    ">
	<path fill="#261C0F" d="M363.922,10.348h-19.984v13.166h18.808v9.246h-18.808v15.049h20.766v9.248h-32.053V1.102h31.27v9.246
		H363.922z"/>
</g>
</svg>
