<?xml version="1.0" encoding="utf-8"?>
<!-- Generator: Adobe Illustrator 16.0.4, SVG Export Plug-In . SVG Version: 6.00 Build 0)  -->
<!DOCTYPE svg PUBLIC "-//W3C//DTD SVG 1.1//EN" "http://www.w3.org/Graphics/SVG/1.1/DTD/svg11.dtd">
<svg version="1.1" id="Layer_1" xmlns="http://www.w3.org/2000/svg" xmlns:xlink="http://www.w3.org/1999/xlink" x="0px" y="0px"
	 width="367.122px" height="98px" viewBox="0 0 367.122 98" enable-background="new 0 0 367.122 98" xml:space="preserve">
<g id="altac-subhead">
	<g id="altac-subhead-project">
		<path id="path3524" fill="#565656" d="M261.098,97.789h-2.16v-26.01h2.16v3.271h0.067c0.312-0.602,0.713-1.143,1.207-1.619
			c0.49-0.479,1.031-0.877,1.619-1.188c0.59-0.312,1.193-0.561,1.818-0.729c0.623-0.168,1.23-0.252,1.836-0.252
			c1.516,0,2.801,0.252,3.854,0.756c1.062,0.512,1.933,1.193,2.611,2.068c0.686,0.877,1.184,1.916,1.492,3.117
			c0.312,1.201,0.473,2.48,0.473,3.854c0,1.303-0.17,2.551-0.506,3.742c-0.338,1.201-0.85,2.254-1.529,3.15
			c-0.688,0.896-1.551,1.621-2.596,2.162c-1.047,0.541-2.273,0.811-3.691,0.811c-1.315,0-2.588-0.295-3.799-0.883
			c-1.213-0.588-2.168-1.459-2.861-2.607v10.34L261.098,97.789L261.098,97.789z M261.098,81.176c0,1.062,0.146,2.062,0.437,3.008
			c0.287,0.949,0.7,1.777,1.239,2.486c0.541,0.709,1.201,1.27,1.979,1.688c0.779,0.424,1.662,0.635,2.646,0.635
			c1.104,0,2.065-0.229,2.896-0.668c0.83-0.441,1.512-1.057,2.035-1.816c0.524-0.768,0.914-1.662,1.149-2.686
			c0.238-1.021,0.338-2.117,0.289-3.299c0-1.184-0.162-2.223-0.483-3.113c-0.324-0.898-0.771-1.66-1.354-2.285
			c-0.576-0.625-1.248-1.105-2.021-1.424c-0.771-0.322-1.604-0.484-2.521-0.484c-1.015,0-1.91,0.203-2.701,0.609
			c-0.793,0.408-1.45,0.969-1.979,1.678c-0.523,0.707-0.933,1.549-1.207,2.52c-0.271,0.979-0.396,2.039-0.396,3.174h-0.01
			L261.098,81.176z"/>
		<path id="path3526" fill="#565656" d="M282.964,90.438h-2.159V71.781h2.159v3.488h0.07c0.604-1.482,1.375-2.521,2.322-3.109
			c0.947-0.594,2.201-0.887,3.768-0.887v2.346c-1.229-0.023-2.229,0.168-3.022,0.572s-1.424,0.959-1.896,1.652
			c-0.469,0.697-0.791,1.521-0.975,2.471c-0.186,0.947-0.271,1.939-0.271,2.977v9.146h-0.01h0.01H282.964z"/>
		<path id="path3528" fill="#565656" d="M299.456,90.938c-1.201-0.02-2.321-0.234-3.369-0.645c-1.043-0.406-1.957-1.021-2.731-1.836
			c-0.776-0.816-1.396-1.84-1.854-3.062c-0.455-1.225-0.688-2.648-0.688-4.287c0-1.363,0.184-2.645,0.541-3.836
			c0.355-1.188,0.896-2.227,1.621-3.111c0.725-0.893,1.619-1.594,2.695-2.105c1.082-0.518,2.349-0.77,3.783-0.77
			c1.465,0,2.735,0.26,3.815,0.77c1.079,0.521,1.979,1.215,2.7,2.09c0.722,0.877,1.254,1.916,1.604,3.115
			c0.351,1.201,0.521,2.484,0.521,3.855c0,1.484-0.202,2.834-0.607,4.029c-0.408,1.201-0.99,2.234-1.746,3.105
			c-0.759,0.854-1.67,1.52-2.738,2c-1.051,0.479-2.229,0.709-3.524,0.709h-0.015L299.456,90.938z M305.794,81.107
			c0-1.104-0.116-2.139-0.354-3.1c-0.238-0.961-0.611-1.795-1.115-2.504c-0.506-0.707-1.152-1.271-1.945-1.674
			c-0.791-0.408-1.764-0.613-2.918-0.613c-1.129,0-2.094,0.225-2.896,0.666c-0.812,0.443-1.461,1.033-1.967,1.768
			c-0.504,0.732-0.877,1.57-1.113,2.521c-0.238,0.947-0.359,1.928-0.359,2.938c0,1.15,0.144,2.221,0.416,3.189
			c0.271,0.973,0.681,1.809,1.205,2.504c0.527,0.697,1.188,1.234,1.979,1.621c0.793,0.385,1.705,0.576,2.732,0.576
			c1.129,0,2.1-0.23,2.899-0.666c0.806-0.445,1.457-1.039,1.963-1.783c0.505-0.744,0.878-1.586,1.114-2.521
			c0.234-0.938,0.354-1.908,0.354-2.924v-0.01L305.794,81.107L305.794,81.107z"/>
		<path id="path3530" fill="#565656" d="M314.807,71.779v21.145c0,0.793-0.032,1.49-0.104,2.09c-0.07,0.605-0.229,1.111-0.485,1.531
			c-0.253,0.42-0.62,0.729-1.111,0.938c-0.487,0.203-1.171,0.312-2.03,0.312c-0.527,0-0.996-0.051-1.404-0.146v-1.9
			c0.625,0.064,1.129,0.072,1.517,0.02c0.386-0.061,0.688-0.195,0.897-0.414c0.215-0.217,0.361-0.504,0.449-0.861
			c0.084-0.355,0.127-0.775,0.127-1.264V71.777h2.17h-0.012L314.807,71.779z M314.907,67.709h-2.377v-3.207h2.377v3.211V67.709z"/>
		<path id="path3532" fill="#565656" d="M321.394,81.607c0,1.016,0.134,1.969,0.396,2.861c0.268,0.902,0.651,1.688,1.172,2.344
			c0.521,0.66,1.174,1.189,1.965,1.584c0.793,0.396,1.703,0.602,2.736,0.602c1.415,0,2.628-0.371,3.641-1.117
			c1.008-0.744,1.684-1.801,2.021-3.17h2.411c-0.269,0.889-0.61,1.711-1.045,2.469c-0.438,0.758-0.979,1.416-1.62,1.98
			c-0.646,0.561-1.419,1.006-2.309,1.311c-0.893,0.312-1.927,0.469-3.103,0.469c-1.488,0-2.771-0.252-3.854-0.758
			c-1.083-0.504-1.975-1.188-2.666-2.064c-0.689-0.875-1.213-1.904-1.553-3.104c-0.336-1.188-0.504-2.469-0.504-3.838
			c0-1.367,0.197-2.65,0.598-3.854c0.396-1.199,0.961-2.254,1.689-3.15c0.729-0.896,1.627-1.605,2.688-2.125
			c1.062-0.521,2.261-0.771,3.604-0.771c2.566,0,4.587,0.891,6.052,2.646c1.469,1.764,2.188,4.33,2.162,7.688h-14.46l-0.01,0.018
			L321.394,81.607z M333.563,79.807c0-0.914-0.125-1.77-0.377-2.574c-0.255-0.807-0.625-1.5-1.114-2.092
			c-0.492-0.588-1.111-1.057-1.854-1.398c-0.744-0.354-1.601-0.521-2.56-0.521c-0.961,0-1.812,0.182-2.541,0.539
			c-0.729,0.359-1.354,0.844-1.873,1.439c-0.521,0.602-0.934,1.299-1.242,2.092c-0.312,0.791-0.516,1.633-0.607,2.521h12.172
			L333.563,79.807L333.563,79.807z"/>
		<path id="path3534" fill="#565656" d="M353.307,77.646c-0.389-1.393-1.045-2.479-1.979-3.262c-0.938-0.777-2.125-1.17-3.563-1.17
			c-1.104,0-2.056,0.229-2.849,0.686c-0.791,0.457-1.438,1.062-1.94,1.818c-0.509,0.756-0.877,1.607-1.112,2.562
			c-0.24,0.939-0.359,1.895-0.359,2.854c0,0.986,0.113,1.945,0.345,2.883c0.231,0.939,0.597,1.777,1.104,2.521
			c0.504,0.744,1.146,1.338,1.938,1.783c0.791,0.438,1.753,0.666,2.884,0.666c1.604,0,2.896-0.443,3.871-1.332
			c0.979-0.896,1.594-2.113,1.854-3.68h2.311c-0.188,1.029-0.5,1.98-0.92,2.824c-0.424,0.854-0.961,1.586-1.618,2.197
			c-0.659,0.611-1.444,1.088-2.354,1.424c-0.914,0.336-1.959,0.504-3.137,0.504c-1.488,0-2.771-0.252-3.855-0.756
			c-1.078-0.506-1.971-1.191-2.665-2.068c-0.693-0.877-1.214-1.912-1.55-3.111c-0.338-1.201-0.506-2.486-0.506-3.855
			c0-1.295,0.188-2.539,0.562-3.727c0.37-1.189,0.918-2.24,1.645-3.152c0.723-0.912,1.61-1.639,2.686-2.18
			c1.066-0.541,2.302-0.812,3.689-0.812c2.16,0,3.905,0.521,5.237,1.559c1.332,1.021,2.166,2.643,2.505,4.816h-2.197h0.012v0.018
			L353.307,77.646z"/>
		<path id="path3536" fill="#565656" d="M366.674,90.506c-0.266,0.049-0.606,0.133-1.045,0.252
			c-0.434,0.121-0.912,0.182-1.438,0.182c-1.079,0-1.901-0.27-2.47-0.811c-0.562-0.539-0.852-1.506-0.852-2.898V73.584h-2.629
			v-1.803h2.629v-5.189h2.16v5.189h3.493v1.803h-3.493v12.787c0,0.457,0.014,0.854,0.034,1.188c0.021,0.338,0.099,0.613,0.22,0.83
			c0.117,0.215,0.307,0.371,0.562,0.467c0.252,0.105,0.604,0.146,1.062,0.146c0.289,0,0.582-0.021,0.883-0.072
			c0.301-0.047,0.599-0.104,0.885-0.18v1.75h0.021L366.674,90.506z"/>
	</g>
	<g id="altac-subhead-commons">
		<path id="path3506" fill="#10496E" d="M128.906,86.039c0.178,0.088,0.266,0.172,0.086,0.434c-0.649,0.963-3.49,3.756-6.722,3.756
			c-1.75,0-3.936-1.35-3.936-4.316c0-6.107,4.766-14.277,10.176-14.277c2.271,0,3.014,1.656,3.014,2.443
			c0,1.229-0.959,2.188-1.828,2.188c-0.704,0-1.223-0.26-1.489-1.045c-0.263-0.613-0.653-1.312-1.354-1.312
			c-0.959,0-1.787,1.053-2.619,2.975c-1.086,2.621-1.704,5.311-1.704,7.688c0,2.188,0.661,3.145,1.79,3.145
			c1.396,0,3.101-1.312,3.625-1.916c0.097-0.176,0.263-0.271,0.349-0.176l0.601,0.434h0.011h-0.01L128.906,86.039z"/>
		<path id="path3300" fill="#10496E" d="M175.206,84.289l-0.613-0.396c-0.084-0.045-0.262-0.045-0.346,0.143
			c-0.268,0.346-2.357,3.145-3.32,3.145c-0.26,0-0.438-0.262-0.522-0.609c0-0.693,0.877-2.527,1.746-5.062
			c1.312-3.752,2.404-6.242,2.404-7.516c0-1.004-0.83-2.355-2.404-2.355c-4.016,0-7.418,5.506-9.776,9.178l-0.354-0.18
			c0.697-1.57,2.314-5.322,2.314-6.947c0-1.041-0.92-2.051-2.396-2.051c-3.934,0-7.771,5.854-9.606,8.916l-0.353-0.184
			c0.353-1.057,2.795-5.939,2.795-7.154c0-0.967-0.568-1.578-1.881-1.578c-3.121,0-6.197,3.355-7.141,4.48
			c-0.459-3.178-3.039-4.48-5.336-4.48c-2.361,0-4.455,0.875-6.199,2.793c-2.447,2.672-3.67,6.16-3.67,9.824l-0.01-0.004
			c0,4.02,2.66,5.98,5.25,5.98c2.615,0,4.629-0.959,6.291-2.885c2.615-2.879,3.754-7.416,3.754-10.213c0-0.17-0.014-0.33-0.023-0.49
			l0.494,0.41c0.172,0.166,0.348,0.166,0.521,0c0.351-0.531,2.623-2.631,3.146-2.631c0.389,0,0.564,0.268,0.564,0.613
			c0,0.652-1.225,3.404-2.229,6.111v-0.02l-3.011,8.141c-0.131,0.352,0.086,0.523,0.353,0.523h2.754c0.348,0,0.559-0.09,0.647-0.35
			l1.444-3.77c0.703-1.561,1.402-2.789,2.007-3.664c2.534-3.668,5.94-7.338,6.985-7.338c0.564,0,0.966,0.354,0.914,0.873
			c0,0.617-1.088,3.496-2.227,6.551l-2.746,7.252c-0.086,0.268,0.09,0.439,0.434,0.439h2.75c0.351,0,0.566-0.088,0.658-0.348
			l1.353-3.768c0.614-1.479,1.397-2.613,1.659-3.057c2.713-4.107,6.201-8.033,7.25-8.033c0.611,0,0.914,0.352,0.914,0.873
			c0,0.703-0.522,2.188-1.871,5.592c-1.661,4.188-2.629,6.895-2.629,7.863c0,0.604,0.523,1.303,1.488,1.303
			c4.02,0,7.685-5.062,7.859-5.326c0.08-0.354,0.08-0.445-0.091-0.615l0.03,0.035v-0.01L175.206,84.289z M140.156,83.807
			l-0.001,0.016c-1.71,2.842-3.28,4.061-4.979,4.051c-0.957,0-1.835-0.873-1.835-2.059c0-1.742,0.878-4.363,2.315-6.811
			c2.138-3.584,3.8-5.109,5.586-5.109c1.271,0,1.886,1.008,1.886,1.969c-0.021,1.561-1.371,5.188-2.989,7.938h0.01v0.012
			L140.156,83.807z"/>
		<path id="path3302" fill="#10496E" d="M245.477,71.619c-4.104,0-6.465,2.793-6.465,5.588c-0.082,1.84,0.739,2.934,1.618,4.414
			c0.912,1.568,2.052,2.84,1.974,4.318c0,1.84-0.972,2.799-2.188,2.799c-0.787,0-1.133-0.438-1.396-1.143
			c-0.351-1.045-1.047-1.742-2.092-1.742c-0.085,0-0.162,0.02-0.24,0.023c-0.097-0.018-0.188,0.004-0.274,0.047
			c-0.027,0.014-0.062,0.033-0.09,0.049c-0.138,0.059-0.263,0.123-0.369,0.211c-0.854,0.521-1.998,1.406-2.521,1.406
			c-0.348,0-0.521-0.268-0.521-0.695c0-0.607,0.604-2.27,1.744-5.152c1.791-4.49,2.354-6.545,2.354-7.689
			c0-1.221-0.871-2.439-2.488-2.439c-4.146,0-8.162,5.512-9.478,7.52l-0.26-0.18c0.785-1.912,2.047-4.896,2.047-5.854
			c0-0.609-0.395-1.484-1.651-1.484c-2.931,0-5.265,1.803-6.529,3.061c-0.909-2.15-3.026-3.061-4.954-3.061
			c-2.354,0-4.443,0.875-6.195,2.795c-2.373,2.596-3.584,5.959-3.65,9.506c-0.033,0.021-0.064,0.062-0.094,0.104
			c-0.271,0.355-2.365,3.146-3.318,3.146c-0.266,0-0.438-0.266-0.521-0.611c0-0.695,0.863-2.529,1.75-5.061
			c1.311-3.75,2.396-6.24,2.396-7.518c0-1.002-0.83-2.354-2.396-2.354c-4.021,0-7.428,5.508-9.787,9.182l-0.348-0.186
			c0.688-1.564,2.312-5.316,2.312-6.941c0-1.041-0.92-2.055-2.398-2.055c-3.936,0-7.771,5.854-9.604,8.916l-0.354-0.188
			c0.354-1.053,2.794-5.938,2.794-7.15c0-0.975-0.562-1.576-1.875-1.576c-3.188,0-6.334,3.494-7.206,4.551
			c-0.092,0.172,0,0.258,0.086,0.438l0.521,0.438c0.175,0.166,0.347,0.166,0.525,0c0.352-0.527,2.615-2.629,3.145-2.629
			c0.395,0,0.564,0.27,0.564,0.611c0,0.656-1.219,3.408-2.227,6.115l-0.021-0.02l-2.99,8.141c-0.133,0.348,0.093,0.521,0.354,0.521
			h2.742c0.354,0,0.569-0.094,0.655-0.355l1.443-3.762c0.696-1.561,1.396-2.789,2.005-3.664c2.533-3.668,5.941-7.338,6.99-7.338
			c0.568,0,0.961,0.35,0.91,0.873c0,0.615-1.084,3.494-2.229,6.551l-2.745,7.252c-0.089,0.26,0.09,0.439,0.438,0.439h2.75
			c0.352,0,0.563-0.09,0.657-0.352l1.354-3.764c0.604-1.482,1.395-2.615,1.66-3.057c2.699-4.105,6.188-8.031,7.235-8.031
			c0.615,0,0.923,0.35,0.923,0.871c0,0.703-0.527,2.188-1.877,5.592c-1.656,4.188-2.613,6.889-2.613,7.863
			c0,0.604,0.521,1.305,1.479,1.305c2.979,0,5.754-2.771,7.066-4.322c0.627,2.896,2.869,4.32,5.062,4.32
			c2.615,0,4.623-0.959,6.295-2.887c2.608-2.877,3.746-7.414,3.746-10.213c0-0.312-0.021-0.605-0.062-0.896
			c0.812-0.771,2.139-1.902,2.811-1.902c0.396,0,0.655,0.266,0.655,0.693c0,0.617-1.05,3.32-2.011,6.117l-2.973,8.07
			c-0.087,0.266-0.039,0.562,0.352,0.562h2.796c0.438,0,0.522-0.088,0.608-0.264l1.396-4.02c0.703-1.746,1.484-3.061,2.354-4.453
			c1.834-2.975,5.506-6.463,6.815-6.463c0.604,0,1.002,0.354,1.002,1.057c0,0.52-1.228,3.84-1.883,5.668
			c-1.396,3.846-2.615,6.811-2.615,7.604c0,0.777,0.521,1.312,1.479,1.312c3.426,0,4.988-1.982,5.703-1.502
			c0.551,0.92,1.924,1.508,4.076,1.508l0.016-0.021c3.938,0,6.644-2.445,6.629-5.828c0-2.008-0.789-3.527-1.664-4.719
			c-0.479-0.646-2-2.445-2-3.934c0-1.918,0.959-2.521,1.828-2.521c0.701,0,0.877,0.689,1.047,1.215
			c0.27,1.143,0.959,1.488,1.746,1.488c0.961,0,1.658-0.693,1.658-1.836c0.01-1.803-1.92-2.42-3.396-2.42l0.01-0.021h-0.006v0.01
			l0,0L245.477,71.619L245.477,71.619z M213.435,83.807l0.008,0.016c-1.709,2.842-3.275,4.061-4.986,4.051
			c-0.959,0-1.832-0.873-1.832-2.059c0-1.742,0.873-4.363,2.314-6.811c2.141-3.584,3.805-5.109,5.588-5.109
			c1.27,0,1.881,1.008,1.881,1.969c-0.014,1.561-1.371,5.188-2.979,7.938v0.012L213.435,83.807z"/>
	</g>
	<g id="altac-subhead-media">
		<path id="path3496" fill="#565656" d="M26.818,72.146h2.975v2.543c0.711-0.881,1.359-1.52,1.938-1.924
			c0.992-0.682,2.112-1.02,3.375-1.02c1.426,0,2.565,0.35,3.438,1.053c0.489,0.4,0.939,0.99,1.338,1.771
			c0.672-0.957,1.45-1.684,2.357-2.137c0.897-0.457,1.914-0.688,3.033-0.688c2.405,0,4.049,0.865,4.918,2.604
			c0.463,0.939,0.696,2.193,0.696,3.777v11.908H47.76V77.604c0-1.188-0.295-2.012-0.89-2.453c-0.6-0.439-1.325-0.662-2.182-0.662
			c-1.186,0-2.193,0.395-3.053,1.184c-0.845,0.791-1.274,2.115-1.274,3.961v10.404H37.31V78.363c0-1.221-0.146-2.105-0.432-2.66
			c-0.462-0.83-1.312-1.252-2.559-1.252c-1.143,0-2.172,0.438-3.096,1.311c-0.933,0.896-1.402,2.48-1.402,4.781v9.484h-3.006V72.129
			h0.002v0.01h0.003L26.818,72.146L26.818,72.146z"/>
		<path id="path3498" fill="#565656" d="M65.78,72.637c1.185,0.598,2.084,1.369,2.699,2.314c0.601,0.898,0.992,1.947,1.197,3.156
			c0.172,0.812,0.264,2.141,0.264,3.938H56.938c0.051,1.82,0.478,3.279,1.271,4.385s2.027,1.646,3.697,1.646
			c1.555,0,2.794-0.521,3.723-1.562c0.523-0.604,0.896-1.301,1.105-2.1h2.957c-0.075,0.662-0.336,1.393-0.775,2.193
			c-0.441,0.812-0.936,1.469-1.473,1.979c-0.904,0.896-2.025,1.496-3.363,1.812c-0.717,0.176-1.535,0.268-2.438,0.268
			c-2.209,0-4.091-0.812-5.623-2.439c-1.539-1.609-2.312-3.887-2.312-6.805c0-2.875,0.772-5.207,2.323-6.998
			c1.55-1.795,3.572-2.688,6.07-2.688c1.269-0.018,2.488,0.271,3.676,0.881h0.004V72.637z M66.859,79.658
			c-0.118-1.303-0.396-2.34-0.84-3.129c-0.822-1.445-2.185-2.17-4.094-2.17c-1.367,0-2.52,0.51-3.447,1.492
			c-0.926,1-1.412,2.271-1.471,3.807H66.859z"/>
		<path id="path3500" fill="#565656" d="M83.859,72.699c0.537,0.338,1.14,0.922,1.813,1.754v-9.039h2.891v24.623h-2.707v-2.486
			c-0.699,1.102-1.524,1.898-2.479,2.391c-0.954,0.488-2.047,0.73-3.277,0.73c-1.986,0-3.707-0.842-5.158-2.514
			c-1.451-1.684-2.178-3.908-2.178-6.689c0-2.604,0.658-4.854,1.984-6.77c1.324-1.906,3.219-2.859,5.68-2.859
			c1.363,0,2.51,0.289,3.428,0.869h0.01h-0.008L83.859,72.699L83.859,72.699z M77.148,86.119c0.807,1.277,2.104,1.93,3.89,1.93
			c1.39,0,2.521-0.602,3.415-1.795c0.891-1.197,1.334-2.912,1.334-5.148c0-2.262-0.457-3.936-1.375-5.021
			c-0.921-1.084-2.057-1.629-3.404-1.629c-1.504,0-2.729,0.58-3.672,1.732c-0.928,1.154-1.396,2.861-1.396,5.111
			c-0.002,1.91,0.404,3.52,1.211,4.818L77.148,86.119L77.148,86.119z"/>
		<path id="path3502" fill="#565656" d="M92.146,65.498h3.056v3.406h-3.056v-3.41V65.498z M92.146,72.227h3.056v17.805h-3.056
			V72.229h0.011h-0.01L92.146,72.227z"/>
		<path id="path3504" fill="#565656" d="M108.246,79.209c0.688-0.086,1.147-0.373,1.385-0.863c0.136-0.27,0.198-0.645,0.198-1.156
			c0-1.021-0.357-1.771-1.087-2.229c-0.729-0.459-1.771-0.689-3.128-0.689c-1.567,0-2.68,0.418-3.34,1.271
			c-0.356,0.475-0.598,1.176-0.717,2.104h-2.801c0.055-2.215,0.768-3.752,2.141-4.617c1.377-0.861,2.97-1.297,4.779-1.297
			c2.104,0,3.812,0.4,5.123,1.199c1.299,0.805,1.951,2.049,1.951,3.748v10.303c0,0.312,0.062,0.562,0.196,0.748
			c0.123,0.191,0.396,0.287,0.81,0.287c0.125,0,0.281-0.008,0.444-0.031c0.166-0.02,0.347-0.035,0.538-0.066v2.223
			c-0.475,0.135-0.824,0.219-1.068,0.25c-0.242,0.037-0.578,0.053-1.004,0.053c-1.029,0-1.785-0.367-2.258-1.104
			c-0.242-0.395-0.416-0.938-0.514-1.656c-0.612,0.805-1.494,1.496-2.642,2.088c-1.149,0.6-2.409,0.893-3.789,0.893
			c-1.663,0-3.021-0.51-4.071-1.521c-1.047-1.002-1.572-2.258-1.572-3.77c0-1.652,0.516-2.939,1.553-3.855
			c1.031-0.91,2.393-1.477,4.073-1.686l4.81-0.619v0.012l-0.01,0.01v-0.01V79.209L108.246,79.209z M101.916,87.328
			c0.631,0.506,1.379,0.75,2.252,0.75c1.056,0,2.086-0.244,3.07-0.736c1.669-0.807,2.514-2.137,2.514-3.982v-2.412
			c-0.375,0.234-0.845,0.438-1.427,0.598c-0.575,0.146-1.139,0.264-1.702,0.33l-1.808,0.229c-1.096,0.146-1.914,0.373-2.459,0.689
			c-0.934,0.518-1.399,1.354-1.399,2.5c0.011,0.881,0.33,1.561,0.972,2.061v-0.01L101.916,87.328z"/>
	</g>
	<path id="altac-subhead-a" fill="#565656" d="M10.47,79.557c0.407-0.047,0.895-0.119,1.459-0.217
		c0.563-0.098,1.025-0.23,1.387-0.396c0.359-0.17,0.582-0.447,0.668-0.854c0.084-0.395,0.125-0.762,0.125-1.098
		c0-1.105-0.354-2.02-1.062-2.727c-0.707-0.703-1.903-1.061-3.584-1.061c-0.744,0-1.429,0.062-2.053,0.195
		c-0.625,0.135-1.171,0.355-1.64,0.688c-0.469,0.324-0.854,0.758-1.152,1.297c-0.301,0.539-0.499,1.227-0.594,2.035H1.827
		c0.072-1.104,0.324-2.047,0.756-2.828c0.434-0.771,0.99-1.416,1.675-1.904c0.685-0.488,1.479-0.854,2.377-1.082
		c0.9-0.229,1.854-0.344,2.863-0.344c0.938,0,1.819,0.105,2.647,0.312s1.549,0.521,2.16,0.973c0.612,0.445,1.094,1.039,1.441,1.783
		c0.348,0.744,0.521,1.656,0.521,2.734v10.152c0,0.846,0.149,1.375,0.45,1.605c0.302,0.229,0.906,0.174,1.819-0.162v1.688
		c-0.168,0.053-0.414,0.117-0.737,0.223c-0.323,0.096-0.644,0.145-0.954,0.145c-0.339,0-0.662-0.037-0.975-0.105
		c-0.36-0.053-0.646-0.16-0.864-0.348c-0.217-0.182-0.392-0.395-0.522-0.645c-0.131-0.252-0.224-0.527-0.271-0.828
		c-0.049-0.299-0.071-0.617-0.071-0.955c-0.914,1.01-1.959,1.777-3.136,2.307c-1.177,0.527-2.448,0.795-3.817,0.795
		c-0.816,0-1.603-0.104-2.358-0.32c-0.756-0.219-1.423-0.559-1.999-1.012c-0.576-0.451-1.033-1.018-1.369-1.68
		c-0.336-0.656-0.504-1.438-0.504-2.354c0-3.17,2.174-5.043,6.521-5.617l2.988-0.381v0.021L10.47,79.557z M14.109,80.637
		c-0.914,0.385-1.838,0.639-2.773,0.756c-0.936,0.121-1.872,0.223-2.811,0.289c-1.656,0.119-2.947,0.492-3.873,1.115
		c-0.926,0.625-1.387,1.574-1.387,2.846c0,0.576,0.113,1.076,0.342,1.496s0.527,0.771,0.9,1.045c0.371,0.275,0.803,0.48,1.297,0.611
		c0.492,0.133,0.989,0.197,1.494,0.197c0.865,0,1.705-0.107,2.521-0.322c0.814-0.219,1.543-0.547,2.179-0.992
		c0.636-0.438,1.146-1.008,1.53-1.688c0.385-0.689,0.576-1.494,0.576-2.439v-2.93h0.002h0.003V80.637z"/>
</g>
<path fill="#8B6A29" d="M33.688,1.822v9.248H13.705v13.166h18.808v9.246H13.705v24.297H2.418V1.824h31.27V1.822z"/>
<path fill="#8B6A29" d="M39.252,1.822h11.284v55.955H39.252V1.822z"/>
<path fill="#8B6A29" d="M90.192,11.07H70.208v13.166h18.808v9.246H70.208v15.049h20.767v9.248H58.922V1.824h31.269L90.192,11.07
	L90.192,11.07z"/>
<path fill="#8B6A29" d="M96.617,1.822h11.286v46.709h19.985v9.248h-31.27L96.617,1.822L96.617,1.822z"/>
<path fill="#8B6A29" d="M150.925,1.822c3.918,0,7.079,0.641,9.482,1.922c2.403,1.279,4.272,3.107,5.604,5.484
	c1.333,2.377,2.234,5.24,2.703,8.582c0.47,3.342,0.706,7.08,0.706,11.207c0,4.91-0.301,9.182-0.901,12.812
	c-0.601,3.633-1.634,6.621-3.097,8.975c-1.462,2.35-3.422,4.102-5.877,5.25c-2.456,1.15-5.564,1.725-9.325,1.725h-17.79V1.824
	h18.495V1.822z M148.73,49.471c1.985,0,3.578-0.34,4.78-1.02c1.202-0.678,2.155-1.803,2.86-3.369
	c0.706-1.566,1.176-3.631,1.411-6.191c0.235-2.559,0.354-5.746,0.354-9.561c0-3.186-0.105-5.982-0.313-8.387
	c-0.209-2.402-0.64-4.398-1.293-5.992s-1.62-2.795-2.899-3.607c-1.281-0.809-2.993-1.213-5.133-1.213h-4.781v39.342h5.015V49.471z"
	/>
<path fill="#261C0F" d="M210.974,15.225c-0.234-1.098-0.614-2.105-1.136-3.018c-0.522-0.914-1.189-1.674-1.999-2.275
	c-0.811-0.598-1.791-0.9-2.939-0.9c-2.717,0-4.676,1.518-5.878,4.545c-1.202,3.031-1.802,8.047-1.802,15.049
	c0,3.342,0.104,6.371,0.312,9.09c0.209,2.715,0.588,5.027,1.137,6.936c0.548,1.906,1.332,3.371,2.351,4.389s2.338,1.527,3.958,1.527
	c0.679,0,1.423-0.184,2.233-0.547c0.81-0.365,1.567-0.916,2.272-1.646s1.294-1.658,1.764-2.783c0.471-1.123,0.706-2.441,0.706-3.957
	v-5.721h-7.445v-8.309h18.261v30.174h-8.307v-5.172h-0.158c-1.359,2.193-2.99,3.75-4.897,4.66c-1.908,0.916-4.192,1.373-6.857,1.373
	c-3.447,0-6.257-0.6-8.424-1.803c-2.169-1.201-3.868-3.057-5.094-5.564c-1.229-2.506-2.052-5.604-2.47-9.285
	c-0.418-3.686-0.626-7.957-0.626-12.816c0-4.701,0.3-8.828,0.901-12.381c0.6-3.551,1.633-6.52,3.096-8.895
	c1.461-2.379,3.395-4.168,5.799-5.369c2.403-1.201,5.408-1.803,9.012-1.803c6.165,0,10.605,1.529,13.324,4.584
	c2.717,3.057,4.074,7.434,4.074,13.127h-10.814C211.327,17.391,211.21,16.32,210.974,15.225z"/>
<path fill="#261C0F" d="M240.638,40.852c0,1.41,0.09,2.703,0.273,3.877c0.184,1.178,0.521,2.195,1.02,3.057
	c0.496,0.863,1.175,1.543,2.037,2.039c0.861,0.498,1.946,0.742,3.253,0.742c1.358,0,2.455-0.244,3.292-0.742
	c0.836-0.496,1.501-1.176,1.999-2.039c0.496-0.861,0.835-1.879,1.019-3.057c0.184-1.174,0.275-2.467,0.275-3.877V1.824h11.285
	v39.027c0,3.553-0.497,6.49-1.489,8.816c-0.993,2.324-2.326,4.166-3.997,5.525c-1.673,1.357-3.578,2.271-5.721,2.742
	s-4.363,0.705-6.66,0.705c-2.3,0-4.52-0.209-6.662-0.627c-2.143-0.416-4.05-1.266-5.721-2.545c-1.672-1.283-3.005-3.098-3.996-5.447
	c-0.994-2.354-1.488-5.41-1.488-9.17V1.824h11.285v39.027H240.638z"/>
<path fill="#261C0F" d="M272.769,1.822h11.284v55.955h-11.284V1.822z"/>
<g enable-background="new    ">
	<path fill="#261C0F" d="M311.481,1.822c3.918,0,7.079,0.641,9.483,1.922c2.403,1.279,4.271,3.107,5.604,5.484
		c1.332,2.377,2.233,5.24,2.703,8.582s0.706,7.08,0.706,11.207c0,4.91-0.302,9.182-0.902,12.812
		c-0.602,3.633-1.633,6.621-3.096,8.975c-1.463,2.35-3.424,4.102-5.877,5.25c-2.457,1.15-5.564,1.725-9.326,1.725h-17.789V1.824
		h18.494V1.822z M309.287,49.471c1.985,0,3.577-0.34,4.78-1.02c1.201-0.678,2.155-1.803,2.861-3.369
		c0.705-1.566,1.176-3.631,1.41-6.191c0.235-2.559,0.354-5.746,0.354-9.561c0-3.186-0.105-5.982-0.313-8.387
		c-0.21-2.402-0.641-4.398-1.294-5.992c-0.654-1.594-1.62-2.795-2.898-3.607c-1.281-0.809-2.992-1.213-5.134-1.213h-4.78v39.342
		h5.015V49.471z"/>
</g>
<g enable-background="new    ">
	<path fill="#261C0F" d="M366.341,11.07h-19.984v13.166h18.808v9.246h-18.808v15.049h20.766v9.248h-32.053V1.824h31.27v9.246
		H366.341z"/>
</g>
<rect id="_x3C_Slice_x3E_" fill="none" width="367" height="98"/>
</svg>
