<?xml version="1.0" encoding="utf-8"?>
<!-- Generator: Adobe Illustrator 16.0.4, SVG Export Plug-In . SVG Version: 6.00 Build 0)  -->
<!DOCTYPE svg PUBLIC "-//W3C//DTD SVG 1.1//EN" "http://www.w3.org/Graphics/SVG/1.1/DTD/svg11.dtd">
<svg version="1.1" xmlns="http://www.w3.org/2000/svg" xmlns:xlink="http://www.w3.org/1999/xlink" x="0px" y="0px"
	 width="363.638px" height="253.62px" viewBox="1 0 363.638 253.62" enable-background="new 1 0 363.638 253.62"
	 xml:space="preserve">
<g id="mobile">
</g>
<g id="full">
	<g id="imr-subhead">
		<g id="imr-subhead-project">
			<path id="path3682" fill="#555555" d="M259.25,94.344h-2.144V68.528h2.146v3.254h0.072c0.309-0.598,0.709-1.133,1.193-1.609
				c0.485-0.476,1.021-0.87,1.606-1.18c0.584-0.312,1.188-0.549,1.808-0.715c0.616-0.168,1.229-0.25,1.821-0.25
				c1.502,0,2.777,0.25,3.826,0.75c1.049,0.502,1.914,1.188,2.592,2.057c0.685,0.871,1.177,1.902,1.484,3.093
				c0.311,1.192,0.465,2.468,0.465,3.827c0,1.287-0.166,2.527-0.5,3.719c-0.334,1.192-0.84,2.235-1.521,3.129
				c-0.685,0.896-1.537,1.609-2.572,2.146c-1.037,0.537-2.262,0.805-3.666,0.805c-1.312,0-2.568-0.292-3.771-0.876
				c-1.199-0.584-2.146-1.448-2.842-2.593L259.25,94.344l-0.011,0.001l0.01,0.01L259.25,94.344L259.25,94.344z M259.25,77.854
				c0,1.05,0.146,2.043,0.433,2.985c0.282,0.942,0.692,1.765,1.229,2.468c0.537,0.703,1.188,1.265,1.969,1.681
				c0.771,0.418,1.647,0.627,2.627,0.627c1.101,0,2.06-0.223,2.88-0.662c0.821-0.441,1.495-1.043,2.021-1.808
				c0.521-0.763,0.9-1.648,1.146-2.664c0.234-1.013,0.334-2.104,0.283-3.271c0-1.168-0.158-2.199-0.479-3.094
				c-0.317-0.895-0.771-1.649-1.34-2.271c-0.572-0.62-1.24-1.091-2.006-1.413c-0.766-0.321-1.6-0.48-2.504-0.48
				c-1.002,0-1.896,0.203-2.684,0.605c-0.787,0.406-1.441,0.961-1.969,1.663c-0.523,0.703-0.926,1.538-1.195,2.503
				c-0.271,0.95-0.41,1.99-0.41,3.11h-0.01L259.25,77.854z"/>
			<path id="path3684" fill="#555555" d="M280.958,87.054h-2.146V68.533h2.146v3.47h0.072c0.596-1.479,1.361-2.509,2.307-3.093
				c0.938-0.584,2.188-0.877,3.734-0.877v2.325c-1.217-0.022-2.219,0.166-3.006,0.571c-0.781,0.405-1.408,0.954-1.877,1.646
				c-0.465,0.689-0.783,1.508-0.965,2.448c-0.183,0.942-0.271,1.927-0.271,2.951v9.079l0.01-0.01L280.958,87.054z"/>
			<path id="path3686" fill="#555555" d="M297.339,87.554c-1.188-0.021-2.307-0.237-3.344-0.644
				c-1.037-0.407-1.941-1.014-2.723-1.824c-0.771-0.81-1.392-1.824-1.842-3.04c-0.453-1.216-0.683-2.634-0.683-4.255
				c0-1.358,0.183-2.628,0.537-3.811c0.354-1.181,0.896-2.211,1.606-3.092c0.717-0.882,1.604-1.58,2.685-2.093
				c1.071-0.512,2.323-0.769,3.754-0.769c1.455,0,2.719,0.257,3.791,0.769c1.071,0.513,1.967,1.204,2.684,2.074
				c0.72,0.871,1.244,1.899,1.595,3.093c0.348,1.192,0.521,2.467,0.521,3.826c0,1.479-0.203,2.812-0.604,4.005
				c-0.404,1.192-0.98,2.217-1.732,3.076c-0.75,0.856-1.656,1.521-2.717,1.981c-1.07,0.461-2.24,0.701-3.531,0.701l0.012-0.01
				h-0.012L297.339,87.554z M303.628,77.784c0-1.097-0.119-2.122-0.354-3.075c-0.236-0.953-0.605-1.782-1.105-2.485
				c-0.5-0.703-1.146-1.257-1.934-1.662c-0.785-0.405-1.752-0.607-2.896-0.607c-1.121,0-2.08,0.221-2.879,0.661
				c-0.801,0.439-1.445,1.023-1.947,1.753c-0.5,0.727-0.867,1.562-1.104,2.503c-0.236,0.94-0.355,1.912-0.355,2.915
				c0,1.144,0.142,2.198,0.41,3.165c0.272,0.966,0.677,1.794,1.197,2.482c0.522,0.692,1.182,1.229,1.969,1.609
				c0.785,0.381,1.688,0.572,2.718,0.572c1.12,0,2.079-0.223,2.881-0.662c0.799-0.441,1.446-1.031,1.946-1.771
				c0.5-0.739,0.869-1.573,1.104-2.504c0.236-0.929,0.355-1.899,0.355-2.899v0.01L303.628,77.784z"/>
			<path id="path3688" fill="#555555" d="M312.569,68.524v20.99c0,0.787-0.032,1.479-0.104,2.074c-0.07,0.596-0.229,1.104-0.48,1.52
				c-0.25,0.419-0.616,0.729-1.104,0.932c-0.487,0.202-1.161,0.304-2.021,0.304c-0.521,0-0.986-0.048-1.396-0.143v-1.89
				c0.619,0.071,1.119,0.077,1.502,0.02c0.383-0.062,0.682-0.196,0.896-0.411c0.217-0.214,0.361-0.5,0.445-0.858
				c0.084-0.356,0.125-0.774,0.125-1.251V68.536h2.157l-0.021,0.01h0.011v-0.01L312.569,68.524z M312.681,64.484h-2.354V61.3h2.354
				v3.182V64.484z"/>
			<path id="path3690" fill="#555555" d="M319.121,78.284c0,1.001,0.133,1.948,0.396,2.843c0.268,0.894,0.647,1.669,1.162,2.325
				c0.516,0.656,1.161,1.18,1.948,1.572c0.787,0.395,1.688,0.59,2.72,0.59c1.403,0,2.608-0.369,3.608-1.108
				c1.002-0.739,1.67-1.788,2.004-3.146h2.396c-0.263,0.883-0.604,1.698-1.035,2.451c-0.43,0.75-0.967,1.405-1.604,1.967
				c-0.646,0.561-1.406,0.996-2.289,1.305s-1.906,0.465-3.074,0.465c-1.479,0-2.754-0.25-3.824-0.751
				c-1.069-0.5-1.954-1.187-2.646-2.056c-0.69-0.87-1.204-1.896-1.539-3.075c-0.334-1.181-0.5-2.45-0.5-3.81
				c0-1.358,0.195-2.635,0.591-3.826c0.396-1.191,0.953-2.234,1.686-3.129c0.729-0.895,1.611-1.598,2.663-2.109
				c1.052-0.511,2.237-0.77,3.573-0.77c2.555,0,4.559,0.877,6.011,2.629c1.45,1.752,2.171,4.297,2.146,7.635h-14.367l0.012,0.02
				L319.121,78.284z M331.201,76.504c0-0.905-0.125-1.758-0.375-2.558c-0.25-0.798-0.619-1.489-1.107-2.073
				c-0.487-0.584-1.104-1.05-1.842-1.396c-0.737-0.345-1.586-0.519-2.539-0.519s-1.793,0.179-2.521,0.537
				c-0.729,0.354-1.353,0.834-1.857,1.43c-0.514,0.597-0.924,1.288-1.23,2.074c-0.312,0.787-0.516,1.622-0.604,2.503h12.08v0.01
				h0.01L331.201,76.504z"/>
			<path id="path3692" fill="#555555" d="M350.798,74.354c-0.381-1.383-1.033-2.461-1.967-3.235
				c-0.93-0.774-2.105-1.162-3.539-1.162c-1.098,0-2.039,0.227-2.824,0.68c-0.783,0.453-1.432,1.055-1.932,1.808
				c-0.502,0.75-0.871,1.598-1.105,2.538c-0.238,0.941-0.354,1.891-0.354,2.843c0,0.979,0.108,1.932,0.338,2.859
				c0.229,0.931,0.592,1.768,1.092,2.504c0.5,0.738,1.146,1.328,1.937,1.771c0.785,0.442,1.733,0.662,2.854,0.662
				c1.603,0,2.879-0.441,3.849-1.323c0.969-0.882,1.576-2.099,1.846-3.646h2.285c-0.188,1.023-0.492,1.961-0.908,2.807
				c-0.418,0.846-0.953,1.572-1.609,2.182c-0.654,0.607-1.438,1.078-2.342,1.412c-0.906,0.333-1.941,0.5-3.109,0.5
				c-1.479,0-2.756-0.25-3.826-0.751c-1.067-0.5-1.955-1.187-2.646-2.056c-0.688-0.87-1.205-1.901-1.537-3.094
				c-0.334-1.19-0.502-2.468-0.502-3.825c0-1.287,0.188-2.521,0.56-3.701c0.365-1.181,0.908-2.224,1.627-3.129
				c0.717-0.906,1.604-1.627,2.664-2.164c1.062-0.536,2.278-0.806,3.664-0.806c2.146,0,3.881,0.514,5.201,1.538
				c1.321,1.024,2.149,2.623,2.483,4.791h-2.17v0.011l-0.013-0.011L350.798,74.354z"/>
			<path id="path3694" fill="#555555" d="M364.069,87.124c-0.266,0.048-0.606,0.131-1.034,0.25
				c-0.433,0.119-0.906,0.179-1.437,0.179c-1.067,0-1.893-0.268-2.447-0.805c-0.562-0.536-0.842-1.496-0.842-2.878V70.308h-2.606
				v-1.787h2.606v-5.148h2.146v5.148h3.469v1.787h-3.469v12.7c0,0.453,0.012,0.847,0.035,1.182c0.02,0.334,0.096,0.606,0.215,0.821
				c0.119,0.214,0.305,0.37,0.555,0.465c0.25,0.098,0.604,0.145,1.061,0.145c0.285,0,0.576-0.023,0.878-0.071
				c0.299-0.047,0.59-0.105,0.877-0.179l-0.021,1.77h-0.011h0.011L364.069,87.124z"/>
		</g>
		<g id="imr-subhead-commons">
			<path id="path3664" fill="#10496E" d="M128.02,82.674c0.174,0.091,0.263,0.171,0.084,0.431c-0.646,0.953-3.465,3.729-6.674,3.729
				c-1.736,0-3.902-1.34-3.902-4.293c0-6.067,4.729-14.177,10.103-14.177c2.256,0,2.992,1.646,2.992,2.428
				c0,1.223-0.952,2.171-1.817,2.171c-0.697,0-1.215-0.26-1.479-1.038c-0.261-0.611-0.648-1.304-1.345-1.304
				c-0.953,0-1.774,1.041-2.601,2.947c-1.079,2.604-1.692,5.283-1.692,7.631c0,2.167,0.655,3.119,1.777,3.119
				c1.387,0,3.077-1.301,3.6-1.903c0.093-0.174,0.261-0.265,0.347-0.174l0.608,0.43v-0.01L128.02,82.674z"/>
			<path id="path3380" fill="#10496E" d="M173.98,80.944l-0.604-0.393c-0.085-0.044-0.261-0.044-0.347,0.136
				c-0.264,0.345-2.338,3.121-3.295,3.121c-0.26,0-0.437-0.26-0.521-0.604c0-0.694,0.873-2.514,1.732-5.032
				c1.306-3.723,2.388-6.195,2.388-7.458c0-0.992-0.824-2.339-2.388-2.339c-3.984,0-7.363,5.466-9.709,9.106l-0.346-0.174
				c0.692-1.562,2.297-5.285,2.297-6.896c0-1.038-0.912-2.038-2.381-2.038c-3.906,0-7.717,5.808-9.537,8.851l-0.348-0.18
				c0.346-1.039,2.771-5.896,2.771-7.105c0-0.955-0.566-1.563-1.865-1.563c-3.094,0-6.145,3.315-7.086,4.438
				c-0.459-3.146-3.018-4.439-5.296-4.439c-2.343,0-4.425,0.869-6.155,2.773c-2.432,2.647-3.646,6.111-3.646,9.752l0.006-0.008
				c0,3.99,2.641,5.94,5.199,5.95c2.599,0,4.597-0.952,6.246-2.862c2.598-2.855,3.727-7.364,3.727-10.141
				c0-0.168-0.013-0.324-0.021-0.484l0.485,0.403c0.171,0.163,0.349,0.163,0.517,0c0.354-0.526,2.605-2.605,3.123-2.605
				c0.391,0,0.563,0.261,0.563,0.605c0,0.651-1.22,3.386-2.214,6.072l-0.039,0.008l-2.949,8.05
				c-0.132,0.347,0.085,0.521,0.348,0.521h2.734c0.348,0,0.557-0.087,0.646-0.344l1.436-3.729c0.696-1.557,1.389-2.773,1.989-3.639
				c2.52-3.645,5.898-7.287,6.938-7.287c0.562,0,0.958,0.347,0.911,0.867c0,0.612-1.081,3.47-2.211,6.502l-2.729,7.198
				c-0.088,0.259,0.09,0.433,0.434,0.433h2.729c0.351,0,0.562-0.088,0.652-0.344l1.344-3.729c0.609-1.476,1.39-2.601,1.647-3.039
				c2.691-4.073,6.154-7.976,7.195-7.976c0.607,0,0.908,0.348,0.908,0.869c0,0.698-0.52,2.168-1.857,5.549
				c-1.65,4.158-2.606,6.844-2.606,7.808c0,0.599,0.521,1.295,1.476,1.295c3.989,0,7.629-5.028,7.803-5.288
				c0.131-0.357,0.131-0.449-0.039-0.619l-0.062,0.011h0.021L173.98,80.944z M139.19,80.464l0.002,0.001
				c-1.688,2.82-3.25,4.03-4.948,4.03c-0.951,0-1.819-0.866-1.819-2.036c0-1.735,0.868-4.339,2.301-6.763
				c2.121-3.56,3.771-5.073,5.547-5.073c1.258,0,1.867,0.999,1.867,1.95C142.14,74.133,140.79,77.733,139.19,80.464L139.19,80.464z"
				/>
			<path id="path3382" fill="#10496E" d="M243.75,68.364c-4.074,0-6.418,2.771-6.418,5.545c-0.08,1.825,0.737,2.912,1.604,4.383
				c0.904,1.561,2.031,2.822,1.955,4.293c0,1.82-0.961,2.771-2.178,2.771c-0.777,0-1.123-0.426-1.389-1.125
				c-0.348-1.039-1.037-1.731-2.072-1.731c-0.088,0-0.168,0.013-0.25,0.024c-0.088-0.012-0.176,0.011-0.266,0.053
				c-0.021,0.009-0.039,0.021-0.062,0.031c-0.152,0.06-0.297,0.14-0.422,0.24c-0.844,0.521-1.967,1.381-2.477,1.381
				c-0.346,0-0.519-0.263-0.519-0.691c0-0.61,0.604-2.255,1.729-5.121c1.779-4.46,2.341-6.496,2.341-7.629
				c0-1.21-0.856-2.428-2.476-2.428c-4.119,0-8.104,5.467-9.403,7.457l-0.261-0.174c0.781-1.898,2.035-4.854,2.035-5.806
				c0-0.608-0.389-1.479-1.646-1.479c-2.908,0-5.228,1.787-6.481,3.041c-0.906-2.133-3.011-3.034-4.916-3.034
				c-2.334,0-4.414,0.868-6.154,2.773c-2.354,2.567-3.557,5.905-3.627,9.426c-0.039,0.024-0.072,0.061-0.103,0.115
				c-0.269,0.344-2.348,3.12-3.299,3.12c-0.261,0-0.437-0.26-0.521-0.605c0-0.694,0.855-2.515,1.732-5.032
				c1.303-3.725,2.385-6.196,2.385-7.458c0-0.992-0.824-2.339-2.385-2.339c-3.99,0-7.373,5.466-9.715,9.106l-0.348-0.176
				c0.688-1.562,2.301-5.283,2.301-6.896c0-1.036-0.91-2.036-2.391-2.036c-3.896,0-7.715,5.807-9.529,8.85l-0.354-0.179
				c0.353-1.039,2.774-5.896,2.774-7.104c0-0.957-0.562-1.562-1.859-1.562c-3.167,0-6.29,3.471-7.151,4.516
				c-0.095,0.171,0,0.257,0.083,0.435l0.52,0.434c0.176,0.163,0.346,0.163,0.525,0c0.348-0.526,2.598-2.606,3.119-2.606
				c0.39,0,0.562,0.26,0.562,0.606c0,0.65-1.211,3.385-2.213,6.07l-0.02,0.01l-2.971,8.05c-0.131,0.346,0.088,0.52,0.354,0.52h2.723
				c0.354,0,0.568-0.086,0.652-0.342l1.438-3.729c0.689-1.558,1.383-2.773,1.991-3.64c2.514-3.643,5.896-7.287,6.938-7.287
				c0.562,0,0.95,0.348,0.899,0.867c0,0.612-1.078,3.469-2.211,6.502l-2.729,7.199c-0.088,0.258,0.092,0.433,0.437,0.433h2.729
				c0.348,0,0.562-0.088,0.65-0.344l1.346-3.729c0.605-1.477,1.385-2.602,1.646-3.039c2.686-4.073,6.146-7.977,7.188-7.977
				c0.607,0,0.916,0.349,0.916,0.869c0,0.698-0.525,2.168-1.863,5.549c-1.646,4.158-2.602,6.845-2.602,7.809
				c0,0.599,0.521,1.295,1.475,1.295c2.953,0,5.713-2.753,7.021-4.29c0.623,2.869,2.854,4.283,5.033,4.291
				c2.603,0,4.592-0.953,6.245-2.863c2.599-2.854,3.724-7.365,3.724-10.14c0-0.313-0.021-0.604-0.062-0.891
				c0.808-0.769,2.123-1.894,2.787-1.894c0.394,0,0.648,0.258,0.648,0.692c0,0.611-1.043,3.299-1.994,6.07l-2.943,8.021
				c-0.086,0.258-0.043,0.562,0.351,0.562h2.771c0.435,0,0.521-0.088,0.604-0.264l1.387-3.984c0.697-1.733,1.479-3.032,2.345-4.422
				c1.813-2.948,5.465-6.418,6.77-6.418c0.604,0,0.996,0.349,0.996,1.045c0,0.522-1.219,3.814-1.869,5.631
				c-1.385,3.816-2.596,6.765-2.596,7.551c0,0.772,0.518,1.295,1.469,1.295c3.396,0,4.949-1.964,5.654-1.494
				c0.549,0.913,1.908,1.498,4.053,1.498l-0.018-0.009c3.91,0,6.59-2.421,6.604-5.802c0-1.994-0.775-3.506-1.646-4.683
				c-0.48-0.647-1.988-2.432-1.988-3.901c0-1.902,0.949-2.51,1.812-2.51c0.69,0,0.864,0.69,1.041,1.209
				c0.264,1.129,0.948,1.479,1.729,1.479c0.96,0,1.647-0.693,1.647-1.826c0.052-1.83-1.856-2.439-3.329-2.439l-0.012-0.01
				l0.021,0.021H243.75L243.75,68.364z M211.938,80.464l-0.012,0.001c-1.699,2.82-3.25,4.03-4.938,4.03
				c-0.949,0-1.814-0.866-1.814-2.036c0-1.735,0.865-4.339,2.307-6.763c2.121-3.56,3.771-5.073,5.547-5.073
				c1.261,0,1.857,0.999,1.857,1.951c0,1.56-1.34,5.158-2.938,7.89h-0.012H211.938z"/>
		</g>
		<g id="imr-subhead-media">
			<path id="path3662" fill="#555555" d="M107.51,75.894c0.682-0.086,1.143-0.373,1.372-0.856c0.136-0.273,0.2-0.648,0.2-1.151
				c0-1.02-0.357-1.76-1.082-2.221c-0.723-0.457-1.759-0.687-3.104-0.687c-1.558,0-2.658,0.414-3.312,1.257
				c-0.357,0.471-0.6,1.166-0.714,2.09h-2.78c0.055-2.199,0.764-3.729,2.123-4.582c1.366-0.86,2.948-1.289,4.747-1.289
				c2.088,0,3.781,0.396,5.085,1.188c1.29,0.802,1.936,2.035,1.936,3.72v10.229c0,0.312,0.063,0.561,0.197,0.744
				c0.122,0.188,0.394,0.283,0.807,0.283c0.125,0,0.277-0.007,0.44-0.028c0.165-0.018,0.345-0.04,0.533-0.072v2.207
				c-0.472,0.13-0.817,0.216-1.063,0.248c-0.24,0.034-0.572,0.052-0.994,0.052c-1.022,0-1.771-0.367-2.24-1.097
				c-0.24-0.384-0.413-0.934-0.51-1.642c-0.607,0.794-1.482,1.479-2.623,2.068c-1.141,0.591-2.395,0.884-3.76,0.884
				c-1.65,0-3-0.502-4.043-1.507c-1.041-0.995-1.562-2.243-1.562-3.745c0-1.644,0.511-2.918,1.54-3.827
				c1.026-0.904,2.374-1.462,4.044-1.669l4.75-0.591l-0.02,0.011v-0.01L107.51,75.894z M101.23,83.964
				c0.627,0.499,1.369,0.743,2.233,0.743c1.052,0,2.068-0.241,3.052-0.729c1.655-0.803,2.49-2.12,2.49-3.955v-2.398
				c-0.369,0.235-0.837,0.428-1.412,0.586c-0.57,0.151-1.134,0.26-1.688,0.328l-1.795,0.229c-1.092,0.146-1.903,0.371-2.442,0.682
				c-0.925,0.517-1.39,1.346-1.39,2.479c0,0.87,0.311,1.54,0.951,2.04v-0.01L101.23,83.964z"/>
			<path id="path3660" fill="#555555" d="M91.53,62.284h3.029v3.382H91.53v-3.38V62.284z M91.53,68.974h3.029v17.672H91.53v-17.67
				V68.974z"/>
			<path id="path3658" fill="#555555" d="M83.304,69.434c0.534,0.336,1.13,0.91,1.804,1.737V62.2h2.867v24.44h-2.68v-2.469
				c-0.693,1.094-1.516,1.885-2.46,2.372c-0.946,0.487-2.035,0.729-3.255,0.729c-1.975,0-3.68-0.838-5.119-2.497
				c-1.441-1.662-2.163-3.878-2.163-6.644c0-2.586,0.653-4.822,1.972-6.721c1.313-1.896,3.192-2.842,5.641-2.842
				c1.353,0,2.488,0.278,3.398,0.858h-0.01h0.005V69.434L83.304,69.434z M76.645,82.754c0.799,1.278,2.09,1.917,3.856,1.917
				c1.38,0,2.504-0.594,3.392-1.777c0.885-1.19,1.324-2.895,1.324-5.112c0-2.246-0.452-3.908-1.363-4.988
				c-0.912-1.075-2.039-1.617-3.382-1.617c-1.491,0-2.712,0.578-3.643,1.729c-0.925,1.147-1.392,2.841-1.392,5.075
				c0.002,1.891,0.402,3.479,1.205,4.771h0.003V82.754L76.645,82.754z"/>
			<path id="path3656" fill="#555555" d="M65.363,69.374c1.175,0.594,2.067,1.361,2.68,2.299c0.598,0.898,0.988,1.938,1.191,3.137
				c0.17,0.814,0.261,2.121,0.261,3.908H56.584c0.055,1.81,0.475,3.258,1.264,4.353c0.788,1.091,2.016,1.636,3.672,1.636
				c1.545,0,2.775-0.513,3.696-1.548c0.519-0.604,0.888-1.293,1.101-2.082h2.935c-0.075,0.654-0.333,1.381-0.771,2.183
				c-0.438,0.8-0.93,1.455-1.463,1.962c-0.896,0.885-2.011,1.482-3.339,1.793c-0.714,0.174-1.521,0.265-2.421,0.265
				c-2.191,0-4.061-0.804-5.582-2.412c-1.529-1.607-2.294-3.858-2.294-6.761c0-2.853,0.771-5.163,2.31-6.942
				c1.537-1.781,3.547-2.672,6.022-2.672C62.975,68.493,64.188,68.784,65.363,69.374v-0.01V69.374z M66.424,76.344
				c-0.115-1.292-0.393-2.321-0.831-3.104c-0.812-1.436-2.166-2.151-4.062-2.151c-1.359,0-2.5,0.498-3.42,1.483
				c-0.922,0.991-1.406,2.25-1.463,3.771L66.424,76.344L66.424,76.344z"/>
			<path id="path3654" fill="#555555" d="M26.674,68.884h2.949v2.523c0.707-0.873,1.352-1.511,1.924-1.907
				c0.984-0.677,2.102-1.015,3.354-1.015c1.414,0,2.549,0.348,3.414,1.047c0.481,0.396,0.93,0.979,1.323,1.758
				c0.666-0.95,1.442-1.661,2.343-2.115c0.894-0.453,1.897-0.688,3.012-0.688c2.391,0,4.021,0.862,4.881,2.584
				c0.462,0.932,0.691,2.178,0.691,3.75V86.64h-3.103V74.308c0-1.186-0.293-1.998-0.888-2.438c-0.592-0.442-1.312-0.662-2.164-0.662
				c-1.172,0-2.176,0.393-3.025,1.174c-0.84,0.784-1.268,2.101-1.268,3.933v10.327h-3.029V75.051c0-1.206-0.146-2.082-0.432-2.638
				c-0.457-0.829-1.299-1.246-2.536-1.246c-1.13,0-2.156,0.439-3.072,1.309c-0.926,0.884-1.392,2.462-1.392,4.745v9.419h-2.983
				V68.879h0.021h-0.02V68.884z"/>
		</g>
		<path id="imr-subhead-a" fill="#555555" d="M10.443,76.254c0.404-0.048,0.889-0.119,1.447-0.215
			c0.562-0.095,1.021-0.227,1.377-0.396c0.357-0.166,0.578-0.445,0.662-0.84c0.084-0.394,0.125-0.757,0.125-1.091
			c0-1.096-0.352-1.997-1.055-2.7c-0.704-0.703-1.891-1.055-3.559-1.055c-0.738,0-1.418,0.065-2.039,0.197
			c-0.619,0.131-1.162,0.355-1.627,0.679c-0.465,0.323-0.847,0.751-1.146,1.288c-0.298,0.536-0.495,1.21-0.59,2.021H1.855
			c0.072-1.097,0.322-2.032,0.75-2.808c0.431-0.774,0.983-1.407,1.664-1.896c0.68-0.487,1.465-0.846,2.359-1.072
			c0.894-0.227,1.842-0.341,2.844-0.341c0.93,0,1.807,0.103,2.627,0.305c0.822,0.203,1.539,0.522,2.146,0.965
			s1.084,1.032,1.43,1.771c0.346,0.739,0.52,1.646,0.52,2.719v10.084c0,0.835,0.148,1.365,0.447,1.591
			c0.297,0.228,0.898,0.173,1.807-0.161v1.682c-0.168,0.048-0.411,0.119-0.733,0.214c-0.321,0.096-0.638,0.144-0.946,0.144
			c-0.334,0-0.656-0.036-0.966-0.105c-0.357-0.05-0.645-0.162-0.857-0.341c-0.213-0.18-0.387-0.394-0.52-0.645
			c-0.132-0.25-0.222-0.523-0.269-0.822c-0.049-0.298-0.072-0.613-0.072-0.947c-0.904,1-1.941,1.766-3.109,2.289
			s-2.434,0.787-3.791,0.787c-0.812,0-1.593-0.105-2.344-0.322c-0.751-0.215-1.413-0.549-1.984-1.002
			c-0.571-0.453-1.024-1.006-1.358-1.662C1.166,83.915,1,83.132,1,82.227c0-3.146,2.157-5.007,6.474-5.58l2.969-0.39v-0.01V76.254
			L10.443,76.254z M14.054,77.324c-0.905,0.382-1.823,0.633-2.753,0.752c-0.93,0.119-1.857,0.214-2.79,0.285
			c-1.646,0.12-2.926,0.489-3.844,1.107c-0.918,0.62-1.377,1.562-1.377,2.825c0,0.572,0.112,1.065,0.34,1.484
			c0.228,0.416,0.522,0.763,0.896,1.036c0.369,0.273,0.797,0.478,1.287,0.607c0.486,0.131,0.981,0.197,1.482,0.197
			c0.857,0,1.691-0.107,2.503-0.322c0.812-0.214,1.532-0.542,2.164-0.982c0.631-0.439,1.14-1.002,1.521-1.682
			c0.381-0.679,0.571-1.484,0.571-2.414v-2.92V77.324z"/>
	</g>
	<g id="imr-res">
		<path id="imr-res-s" fill="#333333" d="M337.569,43.534c1.479,6.944,5.068,9.52,12.099,9.52c6.789,0,9.985-3.588,9.985-7.49
			c0-11.704-25.905-3.434-25.905-19.352c0-6.709,5.229-11.548,14.203-11.548c8.733,0,14.432,3.59,15.604,12.717h-4.763
			c-0.854-6.241-5.069-8.504-10.926-8.504c-5.937,0-9.132,2.81-9.132,6.944c0,11.002,25.902,4.135,25.902,19.664
			c0,7.725-6.938,11.78-16.465,11.78c-9.518,0-14.979-6.086-15.371-13.729h4.771L337.569,43.534L337.569,43.534z"/>
		<path id="imr-res-e" fill="#333333" d="M297.069,37.054c-0.077,8.739,4.604,15.996,13.576,15.996
			c6.084,0,10.847-3.354,12.248-9.287h5.229c-2.336,7.648-7.179,13.5-17.479,13.5c-12.951,0-18.572-9.208-18.572-21.146
			c0-11.784,7.021-21.458,18.572-21.458c11.078,0,17.863,7.881,17.791,22.394h-31.369v0.011L297.069,37.054z M323.438,33.154
			c0-7.879-4.367-14.278-12.797-14.278c-8.271,0-12.643,6.633-13.576,14.278h26.379H323.438z"/>
		<path id="imr-res-r" fill="#333333" d="M277.412,56.174h-4.687V15.756h4.687v7.567h0.151c2.576-6.477,6.396-8.659,13.188-8.659
			v5.071c-10.535-0.232-13.344,7.567-13.344,16.618L277.412,56.174L277.412,56.174z"/>
	</g>
	<g id="imr-media">
		<path id="imr-media-a" fill="#EA6A20" d="M242.972,31.474c1.568-0.201,2.627-0.862,3.156-1.979c0.311-0.611,0.455-1.49,0.455-2.64
			c0-2.345-0.83-4.047-2.48-5.104c-1.662-1.059-4.039-1.589-7.137-1.589c-3.566,0-6.105,0.972-7.604,2.912
			c-0.838,1.072-1.385,2.668-1.637,4.786h-6.398c0.127-5.043,1.758-8.552,4.891-10.525c3.137-1.973,6.771-2.96,10.9-2.96
			c4.793,0,8.688,0.914,11.688,2.742c2.969,1.829,4.445,4.674,4.445,8.536v23.505c0,0.712,0.146,1.282,0.438,1.714
			c0.295,0.432,0.906,0.646,1.854,0.646c0.306,0,0.646-0.019,1.024-0.057c0.382-0.039,0.789-0.095,1.226-0.172v5.065
			c-1.069,0.306-1.883,0.496-2.44,0.571c-0.562,0.077-1.314,0.115-2.281,0.115c-2.361,0-4.076-0.838-5.146-2.515
			c-0.559-0.89-0.945-2.146-1.178-3.771c-1.396,1.829-3.406,3.415-6.021,4.761c-2.613,1.347-5.498,2.021-8.646,2.021
			c-3.785,0-6.875-1.147-9.272-3.443c-2.4-2.295-3.603-5.167-3.603-8.618c0-3.777,1.178-6.709,3.543-8.789
			c2.358-2.08,5.459-3.359,9.293-3.843l10.951-1.36h-0.021l0.012-0.01L242.972,31.474z M228.528,50.004
			c1.445,1.14,3.162,1.708,5.146,1.708c2.414,0,4.75-0.557,7.012-1.672c3.812-1.853,5.717-4.883,5.717-9.092V35.43
			c-0.836,0.537-1.913,0.981-3.229,1.338c-1.313,0.357-2.606,0.611-3.879,0.767l-4.146,0.532c-2.479,0.329-4.354,0.85-5.604,1.56
			c-2.119,1.19-3.185,3.09-3.185,5.7c0,1.979,0.724,3.539,2.173,4.68v-0.01v0.007H228.528z"/>
		<path id="imr-media-i" fill="#EA6A20" d="M206.028,0.004H213V7.98h-6.972V0V0.004L206.028,0.004z M206.028,15.564H213v40.609
			h-6.972V15.564L206.028,15.564z"/>
		<path id="imr-media-d" fill="#EA6A20" d="M188.181,16.624c1.213,0.763,2.596,2.095,4.137,4V0.015h6.595v56.152h-6.175v-5.67
			c-1.596,2.514-3.479,4.331-5.651,5.446c-2.181,1.117-4.668,1.677-7.479,1.677c-4.528,0-8.451-1.911-11.765-5.73
			c-3.313-3.824-4.973-8.91-4.973-15.259c0-5.942,1.512-11.093,4.534-15.448c3.021-4.354,7.345-6.535,12.959-6.535
			c3.103-0.01,5.711,0.65,7.812,1.972l0.013,0.01L188.181,16.624L188.181,16.624z M172.87,47.214c1.845,2.946,4.802,4.42,8.867,4.42
			c3.16,0,5.759-1.365,7.789-4.096c2.033-2.731,3.056-6.646,3.056-11.753c0-5.156-1.054-8.973-3.146-11.448
			c-2.101-2.477-4.688-3.714-7.771-3.714c-3.437,0-6.224,1.319-8.356,3.961c-2.134,2.642-3.203,6.528-3.203,11.658
			c0,4.37,0.931,8.029,2.771,10.97L172.87,47.214z"/>
		<path id="imr-media-e" fill="#EA6A20" d="M147.57,16.494c2.699,1.356,4.757,3.116,6.172,5.274
			c1.363,2.059,2.271,4.457,2.726,7.199c0.403,1.879,0.606,4.876,0.606,8.991h-29.68c0.127,4.151,1.098,7.48,2.912,9.99
			c1.812,2.508,4.623,3.762,8.428,3.762c3.553,0,6.389-1.185,8.506-3.558c1.185-1.377,2.022-2.972,2.518-4.785h6.73
			c-0.178,1.499-0.771,3.167-1.771,5.009c-1.004,1.842-2.123,3.347-3.357,4.515c-2.065,2.032-4.625,3.404-7.676,4.114
			c-1.639,0.406-3.49,0.608-5.559,0.608c-5.048,0-9.326-1.848-12.834-5.541c-3.508-3.696-5.262-8.87-5.262-15.523
			c0-6.553,1.768-11.874,5.301-15.962c3.532-4.089,8.15-6.134,13.855-6.134c2.871-0.01,5.66,0.67,8.36,2.028l0.011,0.011
			L147.57,16.494z M150.03,32.514c-0.276-2.973-0.92-5.347-1.928-7.125c-1.865-3.302-4.974-4.953-9.33-4.953
			c-3.123,0-5.742,1.139-7.855,3.409c-2.117,2.273-3.236,5.163-3.363,8.669h22.479h-0.01H150.03z"/>
		<path id="imr-media-m" fill="#EA6A20" d="M58.934,15.374h6.781v5.791c1.624-2.006,3.098-3.467,4.419-4.381
			c2.261-1.55,4.825-2.324,7.695-2.324c3.25,0,5.866,0.801,7.848,2.399c1.118,0.914,2.134,2.263,3.048,4.039
			c1.523-2.186,3.314-3.805,5.373-4.856c2.057-1.055,4.367-1.582,6.934-1.582c5.484,0,9.221,1.979,11.199,5.943
			c1.066,2.133,1.601,5.004,1.601,8.608v27.162h-7.123v-28.34c0-2.717-0.681-4.584-2.038-5.603
			c-1.357-1.016-3.018-1.521-4.973-1.521c-2.69,0-5.01,0.901-6.951,2.705c-1.943,1.803-2.914,4.812-2.914,9.028v23.732h-6.979
			V29.546c0-2.768-0.332-4.787-0.992-6.058c-1.041-1.905-2.982-2.856-5.828-2.856c-2.59,0-4.945,1.002-7.066,3.008
			c-2.121,2.008-3.182,5.643-3.182,10.896v21.639H58.93V15.376h-0.001l0.01-0.01h-0.012L58.934,15.374z"/>
	</g>
	<g id="imr-in">
		<path id="imr-in-n" fill="#333333" d="M16.693,56.174h-4.685V15.756h4.685v5.619c3.744-3.979,7.41-6.709,13.031-6.709
			c4.913,0,9.439,1.56,12.326,5.773c1.95,2.887,2.028,5.93,2.028,9.285v26.451h-4.681V29.801c0-7.256-2.967-10.924-10.457-10.924
			c-5.772,0-9.752,3.746-11.235,7.881c-0.937,2.574-1.015,4.839-1.015,7.646v21.771L16.693,56.174l-0.001-0.009L16.693,56.174z"/>
		<path id="imr-in-i" fill="#333333" d="M1.794,10.184V4.253h5.147v5.931H1.792H1.794z M2.023,56.174V15.756h4.683v40.418H2.023z"/>
	</g>
	<g id="imr-res_1_">
		<path id="imr-res-s_1_" fill="#333333" d="M337.569,239.534c1.479,6.944,5.068,9.52,12.099,9.52c6.789,0,9.985-3.588,9.985-7.49
			c0-11.704-25.905-3.434-25.905-19.352c0-6.709,5.229-11.548,14.203-11.548c8.733,0,14.432,3.59,15.604,12.717h-4.763
			c-0.854-6.241-5.069-8.504-10.926-8.504c-5.937,0-9.132,2.81-9.132,6.944c0,11.002,25.902,4.135,25.902,19.664
			c0,7.725-6.938,11.78-16.465,11.78c-9.518,0-14.979-6.086-15.371-13.729h4.771L337.569,239.534L337.569,239.534z"/>
		<path id="imr-res-e_1_" fill="#333333" d="M297.069,233.054c-0.077,8.739,4.604,15.996,13.576,15.996
			c6.084,0,10.847-3.354,12.248-9.287h5.229c-2.336,7.648-7.179,13.5-17.479,13.5c-12.951,0-18.572-9.208-18.572-21.146
			c0-11.784,7.021-21.458,18.572-21.458c11.078,0,17.863,7.881,17.791,22.394h-31.369v0.011L297.069,233.054z M323.438,229.154
			c0-7.879-4.367-14.278-12.797-14.278c-8.271,0-12.643,6.633-13.576,14.278h26.379H323.438z"/>
		<path id="imr-res-r_1_" fill="#333333" d="M277.412,252.174h-4.687v-40.418h4.687v7.567h0.151
			c2.576-6.477,6.396-8.659,13.188-8.659v5.071c-10.535-0.232-13.344,7.567-13.344,16.618L277.412,252.174L277.412,252.174z"/>
	</g>
	<g id="imr-media_1_">
		<path id="imr-media-a_1_" fill="#EA6A20" d="M242.972,227.474c1.568-0.201,2.627-0.862,3.156-1.979
			c0.311-0.611,0.455-1.49,0.455-2.64c0-2.345-0.83-4.047-2.48-5.104c-1.662-1.059-4.039-1.589-7.137-1.589
			c-3.566,0-6.105,0.972-7.604,2.912c-0.838,1.072-1.385,2.668-1.637,4.786h-6.398c0.127-5.043,1.758-8.552,4.891-10.525
			c3.137-1.973,6.771-2.96,10.9-2.96c4.793,0,8.688,0.914,11.688,2.742c2.969,1.829,4.445,4.674,4.445,8.536v23.505
			c0,0.712,0.146,1.282,0.438,1.714c0.295,0.432,0.906,0.646,1.854,0.646c0.306,0,0.646-0.019,1.024-0.057
			c0.382-0.039,0.789-0.095,1.226-0.172v5.065c-1.069,0.306-1.883,0.496-2.44,0.571c-0.562,0.077-1.314,0.115-2.281,0.115
			c-2.361,0-4.076-0.838-5.146-2.515c-0.559-0.89-0.945-2.146-1.178-3.771c-1.396,1.829-3.406,3.415-6.021,4.761
			c-2.613,1.347-5.498,2.021-8.646,2.021c-3.785,0-6.875-1.147-9.272-3.443c-2.4-2.295-3.603-5.167-3.603-8.618
			c0-3.777,1.178-6.709,3.543-8.789c2.358-2.08,5.459-3.359,9.293-3.843l10.951-1.36h-0.021l0.012-0.01L242.972,227.474z
			 M228.528,246.004c1.445,1.14,3.162,1.708,5.146,1.708c2.414,0,4.75-0.557,7.012-1.672c3.812-1.853,5.717-4.883,5.717-9.092
			v-5.518c-0.836,0.537-1.913,0.981-3.229,1.338c-1.313,0.357-2.606,0.611-3.879,0.767l-4.146,0.532
			c-2.479,0.329-4.354,0.85-5.604,1.56c-2.119,1.19-3.185,3.09-3.185,5.7c0,1.979,0.724,3.539,2.173,4.68v-0.01v0.007H228.528z"/>
		<path id="imr-media-i_1_" fill="#EA6A20" d="M206.028,196.004H213v7.976h-6.972V196V196.004L206.028,196.004z M206.028,211.564
			H213v40.609h-6.972V211.564L206.028,211.564z"/>
		<path id="imr-media-d_1_" fill="#EA6A20" d="M188.181,212.624c1.213,0.763,2.596,2.095,4.137,4v-20.609h6.595v56.152h-6.175v-5.67
			c-1.596,2.514-3.479,4.331-5.651,5.446c-2.181,1.117-4.668,1.677-7.479,1.677c-4.528,0-8.451-1.911-11.765-5.73
			c-3.313-3.824-4.973-8.91-4.973-15.259c0-5.942,1.512-11.093,4.534-15.448c3.021-4.354,7.345-6.535,12.959-6.535
			c3.103-0.01,5.711,0.65,7.812,1.972l0.013,0.01L188.181,212.624L188.181,212.624z M172.87,243.214
			c1.845,2.946,4.802,4.42,8.867,4.42c3.16,0,5.759-1.365,7.789-4.096c2.033-2.731,3.056-6.646,3.056-11.753
			c0-5.156-1.054-8.973-3.146-11.448c-2.101-2.477-4.688-3.714-7.771-3.714c-3.437,0-6.224,1.319-8.356,3.961
			c-2.134,2.642-3.203,6.528-3.203,11.658c0,4.37,0.931,8.029,2.771,10.97L172.87,243.214z"/>
		<path id="imr-media-e_1_" fill="#EA6A20" d="M147.57,212.494c2.699,1.356,4.757,3.116,6.172,5.274
			c1.363,2.059,2.271,4.457,2.726,7.199c0.403,1.879,0.606,4.876,0.606,8.991h-29.68c0.127,4.151,1.098,7.48,2.912,9.99
			c1.812,2.508,4.623,3.762,8.428,3.762c3.553,0,6.389-1.185,8.506-3.558c1.185-1.377,2.022-2.972,2.518-4.785h6.73
			c-0.178,1.499-0.771,3.167-1.771,5.009c-1.004,1.842-2.123,3.347-3.357,4.515c-2.065,2.032-4.625,3.404-7.676,4.114
			c-1.639,0.406-3.49,0.608-5.559,0.608c-5.048,0-9.326-1.848-12.834-5.541c-3.508-3.696-5.262-8.87-5.262-15.523
			c0-6.553,1.768-11.874,5.301-15.962c3.532-4.089,8.15-6.134,13.855-6.134c2.871-0.01,5.66,0.67,8.36,2.028l0.011,0.011
			L147.57,212.494z M150.03,228.514c-0.276-2.973-0.92-5.347-1.928-7.125c-1.865-3.302-4.974-4.953-9.33-4.953
			c-3.123,0-5.742,1.139-7.855,3.409c-2.117,2.273-3.236,5.163-3.363,8.669h22.479h-0.01H150.03z"/>
		<path id="imr-media-m_1_" fill="#EA6A20" d="M58.934,211.374h6.781v5.791c1.624-2.006,3.098-3.467,4.419-4.381
			c2.261-1.55,4.825-2.324,7.695-2.324c3.25,0,5.866,0.801,7.848,2.399c1.118,0.914,2.134,2.263,3.048,4.039
			c1.523-2.186,3.314-3.805,5.373-4.856c2.057-1.055,4.367-1.582,6.934-1.582c5.484,0,9.221,1.979,11.199,5.943
			c1.066,2.133,1.601,5.004,1.601,8.608v27.162h-7.123v-28.34c0-2.717-0.681-4.584-2.038-5.603
			c-1.357-1.016-3.018-1.521-4.973-1.521c-2.69,0-5.01,0.901-6.951,2.705c-1.943,1.803-2.914,4.812-2.914,9.028v23.732h-6.979
			v-26.628c0-2.768-0.332-4.787-0.992-6.058c-1.041-1.905-2.982-2.856-5.828-2.856c-2.59,0-4.945,1.002-7.066,3.008
			c-2.121,2.008-3.182,5.643-3.182,10.896v21.639H58.93v-40.799h-0.001l0.01-0.01h-0.012L58.934,211.374z"/>
	</g>
	<g id="imr-in_1_">
		<path id="imr-in-n_1_" fill="#333333" d="M16.693,252.174h-4.685v-40.418h4.685v5.619c3.744-3.979,7.41-6.709,13.031-6.709
			c4.913,0,9.439,1.56,12.326,5.773c1.95,2.887,2.028,5.93,2.028,9.285v26.451h-4.681v-26.374c0-7.256-2.967-10.924-10.457-10.924
			c-5.772,0-9.752,3.746-11.235,7.881c-0.937,2.574-1.015,4.839-1.015,7.646v21.771L16.693,252.174l-0.001-0.009L16.693,252.174z"/>
		<path id="imr-in-i_1_" fill="#333333" d="M1.794,206.184v-5.931h5.147v5.931H1.792H1.794z M2.023,252.174v-40.418h4.683v40.418
			H2.023z"/>
	</g>
</g>
</svg>
