<?xml version="1.0" encoding="utf-8"?>
<!-- Generator: Adobe Illustrator 16.0.4, SVG Export Plug-In . SVG Version: 6.00 Build 0)  -->
<!DOCTYPE svg PUBLIC "-//W3C//DTD SVG 1.1//EN" "http://www.w3.org/Graphics/SVG/1.1/DTD/svg11.dtd">
<svg version="1.1" xmlns="http://www.w3.org/2000/svg" xmlns:xlink="http://www.w3.org/1999/xlink" x="0px" y="0px" width="120px"
	 height="80px" viewBox="0 0 120 80" enable-background="new 0 0 120 80" xml:space="preserve">
<g id="Layer_2">
	<g id="Layer_3">
	</g>
	<g id="Layer_3_1_">
		<rect fill="#EAEAEA" width="120" height="79"/>
	</g>
	<g>
		<polyline fill="#CECFD1" points="120,77 0,77 0,80 120,80 120,77 		"/>
	</g>
</g>
<g id="Layer_1">
	<path id="path3617" fill="#CECFD1" d="M95.981,73.48c-2.842,2.158-6.429,3.238-10.75,3.238c-3.034,0-5.669-0.49-7.897-1.469
		c-2.233-0.977-4.109-2.354-5.636-4.121c-1.521-1.764-2.65-3.869-3.416-6.324c-0.762-2.459-1.188-5.125-1.282-8.014
		c0-2.895,0.438-5.541,1.323-7.941c0.879-2.4,2.114-4.492,3.712-6.26c1.588-1.765,3.477-3.14,5.658-4.116
		C79.878,37.49,82.269,37,84.869,37c3.381,0,6.188,0.707,8.418,2.097c2.234,1.399,4.021,3.174,5.373,5.329
		c1.348,2.15,2.273,4.514,2.795,7.066c0.517,2.551,0.716,4.977,0.625,7.281H73.65c-0.048,1.664,0.145,3.248,0.586,4.746
		c0.444,1.494,1.153,2.816,2.135,3.965c0.984,1.152,2.231,2.076,3.76,2.76c1.516,0.691,3.306,1.027,5.363,1.027
		c2.647,0,4.821-0.607,6.512-1.836c1.693-1.225,2.805-3.086,3.342-5.592h6.187c-0.807,4.275-2.649,7.492-5.488,9.648l-0.031,0.014
		L95.981,73.48z M94.47,49.074c-0.566-1.32-1.326-2.461-2.276-3.418c-0.958-0.957-2.087-1.711-3.383-2.275
		c-1.306-0.57-2.739-0.846-4.302-0.846c-1.621,0-3.083,0.281-4.383,0.846c-1.297,0.564-2.414,1.338-3.346,2.32
		c-0.926,0.979-1.665,2.123-2.204,3.42c-0.543,1.295-0.858,2.684-0.959,4.148h21.846c-0.104-1.453-0.433-2.854-1.005-4.17v-0.031
		L94.47,49.074z"/>
	<path id="path3611" fill="#CECFD1" d="M35.89,38.883v6.035h0.142C38.63,40.309,42.751,38,48.389,38
		c2.503,0,4.587,0.344,6.256,1.029c1.665,0.689,3.018,1.645,4.044,2.865c1.028,1.227,1.754,2.69,2.169,4.381
		c0.415,1.694,0.622,3.572,0.622,5.629v25.012H55.23V51.18c0-2.357-0.685-4.217-2.062-5.594c-1.374-1.372-3.259-2.059-5.664-2.059
		c-1.904,0-3.562,0.298-4.957,0.885c-1.404,0.592-2.565,1.423-3.497,2.498c-0.932,1.088-1.627,2.342-2.098,3.787
		c-0.467,1.452-0.697,3.029-0.697,4.747V76.92H30V38.892h5.895l-0.001,0.015h0.013L35.89,38.883z"/>
	<path id="path3605" fill="#CECFD1" d="M22.98,38.354v3.896h-7.721v25.595c0,1.524,0.213,2.71,0.621,3.566
		c0.418,0.861,1.462,1.34,3.131,1.434c1.324,0,2.647-0.076,3.969-0.218v3.895c-0.683,0-1.373,0.026-2.06,0.073
		c-0.683,0.046-1.373,0.082-2.063,0.082c-3.083,0-5.243-0.604-6.467-1.802c-1.224-1.21-1.816-3.421-1.769-6.662V42.296H4V38.4h6.621
		V27h4.639v11.4h7.721v0.017V38.4V38.354z"/>
</g>
</svg>
