<?xml version="1.0" encoding="utf-8"?>
<!-- Generator: Adobe Illustrator 16.0.4, SVG Export Plug-In . SVG Version: 6.00 Build 0)  -->
<!DOCTYPE svg PUBLIC "-//W3C//DTD SVG 1.1//EN" "http://www.w3.org/Graphics/SVG/1.1/DTD/svg11.dtd">
<svg version="1.1" id="Layer_1" xmlns="http://www.w3.org/2000/svg" xmlns:xlink="http://www.w3.org/1999/xlink" x="0px" y="0px"
	 width="420px" height="50px" viewBox="0 0 420 50" enable-background="new 0 0 420 50" xml:space="preserve">
<path fill="none" stroke="#FFFFFF" stroke-miterlimit="10" d="M844.004,4.948"/>
<path fill="none" stroke="#FFFFFF" stroke-miterlimit="10" d="M844.004,4.948"/>
<path fill="none" stroke="#FFFFFF" stroke-miterlimit="10" d="M844.004,4.948"/>
<path fill="none" stroke="#FFFFFF" stroke-miterlimit="10" d="M844.004,4.948"/>
<path fill="none" stroke="#FFFFFF" stroke-miterlimit="10" d="M844.004,4.948"/>
<polyline fill="none" stroke="#FFFFFF" stroke-width="3" stroke-miterlimit="10" points="841.001,18.691 834.001,33.191 
	827.001,18.691 "/>
<g id="mc-commons_2_">
	<path id="mc-commons-mons_2_" fill="#FFFFFF" d="M366.417,10.619c-7.021,0-11.056,4.783-11.056,9.562
		c-0.146,3.139,1.271,5.004,2.765,7.543c1.565,2.689,3.511,4.855,3.36,7.396c0,3.137-1.645,4.779-3.733,4.779
		c-1.346,0-1.942-0.746-2.392-1.941c-0.6-1.793-1.793-2.988-3.586-2.988c-0.177,0-0.346,0.023-0.511,0.055
		c-0.123,0-0.246,0.025-0.37,0.086c-0.021,0.012-0.052,0.027-0.075,0.041c-0.283,0.104-0.541,0.25-0.771,0.438
		c-1.452,0.896-3.378,2.371-4.24,2.371c-0.601,0-0.896-0.447-0.896-1.195c0-1.045,1.048-3.883,2.987-8.812
		c3.062-7.693,4.033-11.203,4.033-13.145c0-2.094-1.495-4.186-4.259-4.186c-7.098,0-13.966,9.412-16.207,12.85l-0.451-0.301
		c1.347-3.285,3.514-8.363,3.514-10.008c0-1.045-0.673-2.541-2.839-2.541c-5.008,0-8.995,3.078-11.168,5.238
		c-1.561-3.686-5.187-5.24-8.474-5.24c-4.033,0-7.62,1.496-10.608,4.783c-4.054,4.418-6.127,10.176-6.249,16.24
		c-0.063,0.043-0.127,0.1-0.172,0.189c-0.45,0.598-4.034,5.377-5.678,5.377c-0.449,0-0.749-0.447-0.896-1.047
		c0-1.193,1.492-4.33,2.984-8.664c2.242-6.422,4.109-10.68,4.109-12.848c0-1.717-1.419-4.033-4.109-4.033
		c-6.871,0-12.698,9.412-16.73,15.688l-0.597-0.301c1.194-2.688,3.961-9.111,3.961-11.875c0-1.793-1.568-3.512-4.107-3.512
		c-6.725,0-13.298,10.01-16.436,15.24l-0.599-0.299c0.597-1.793,4.778-10.158,4.778-12.25c0-1.645-0.971-2.689-3.211-2.689
		c-5.452,0-10.829,5.977-12.325,7.77c-0.147,0.299,0,0.447,0.147,0.746l0.896,0.748c0.297,0.299,0.6,0.299,0.896,0
		c0.601-0.896,4.482-4.48,5.379-4.48c0.674,0,0.972,0.445,0.972,1.045c0,1.119-2.091,5.824-3.81,10.457h0.029l-5.183,13.891
		c-0.223,0.598,0.15,0.896,0.601,0.896h4.705c0.596,0,0.973-0.148,1.121-0.598l2.465-6.424c1.195-2.689,2.39-4.779,3.438-6.273
		c4.328-6.273,10.156-12.549,11.951-12.549c0.971,0,1.642,0.6,1.566,1.494c0,1.045-1.867,5.977-3.812,11.203l-4.701,12.4
		c-0.151,0.447,0.146,0.746,0.744,0.746h4.705c0.601,0,0.974-0.148,1.121-0.598l2.316-6.424c1.046-2.541,2.391-4.48,2.838-5.229
		c4.629-7.021,10.604-13.744,12.397-13.744c1.048,0,1.569,0.598,1.569,1.494c0,1.195-0.899,3.734-3.215,9.561
		c-2.838,7.172-4.479,11.801-4.479,13.445c0,1.045,0.896,2.24,2.537,2.24c5.099,0,9.858-4.762,12.104-7.406
		c1.062,4.963,4.908,7.406,8.662,7.408c4.48,0,7.918-1.645,10.756-4.93c4.48-4.932,6.423-12.699,6.423-17.479
		c0-0.537-0.042-1.039-0.103-1.521c1.392-1.316,3.66-3.256,4.808-3.256c0.671,0,1.119,0.447,1.119,1.195
		c0,1.045-1.793,5.676-3.438,10.457l-5.079,13.816c-0.146,0.449-0.071,0.973,0.602,0.973h4.78c0.744,0,0.896-0.148,1.045-0.449
		l2.392-6.873c1.193-2.986,2.541-5.229,4.035-7.615c3.134-5.08,9.41-11.057,11.647-11.057c1.049,0,1.721,0.596,1.721,1.791
		c0,0.896-2.094,6.574-3.212,9.711c-2.393,6.572-4.48,11.652-4.48,12.996c0,1.346,0.896,2.242,2.539,2.242
		c5.842,0,8.514-3.373,9.733-2.576c0.946,1.57,3.296,2.574,6.984,2.574c6.729,0,11.356-4.184,11.356-10.008
		c0-3.438-1.345-6.051-2.836-8.066c-0.823-1.121-3.438-4.184-3.438-6.723c0-3.289,1.645-4.334,3.136-4.334
		c1.194,0,1.495,1.195,1.794,2.094c0.448,1.941,1.644,2.539,2.986,2.539c1.646,0,2.84-1.195,2.84-3.139
		c-0.01-3.141-3.3-4.188-5.84-4.188h0.021L366.417,10.619z M311.607,31.459h-0.006c-2.91,4.855-5.601,6.947-8.511,6.947
		c-1.646,0-3.139-1.494-3.139-3.512c0-2.986,1.493-7.469,3.958-11.652c3.662-6.123,6.501-8.738,9.562-8.738
		c2.167,0,3.213,1.719,3.213,3.359c0.01,2.691-2.31,8.891-5.07,13.596H311.607z"/>
	<path id="mc-commons-om_2_" fill="#FFFFFF" d="M246.557,32.279l-1.045-0.672c-0.15-0.074-0.449-0.074-0.601,0.225
		c-0.446,0.598-4.032,5.377-5.677,5.377c-0.448,0-0.75-0.447-0.896-1.047c0-1.193,1.491-4.33,2.985-8.664
		c2.24-6.422,4.105-10.68,4.105-12.848c0-1.717-1.418-4.033-4.105-4.033c-6.871,0-12.698,9.412-16.73,15.688l-0.6-0.301
		c1.194-2.688,3.961-9.111,3.961-11.875c0-1.793-1.568-3.512-4.109-3.512c-6.725,0-13.295,10.01-16.434,15.24l-0.597-0.299
		c0.595-1.793,4.778-10.158,4.778-12.25c0-1.645-0.969-2.689-3.211-2.689c-4.208,0-8.363,3.555-10.731,6.002
		c-1.357-4.238-5.257-6.002-8.765-6.002c-4.031,0-7.618,1.494-10.604,4.781c-4.183,4.555-6.273,10.533-6.273,16.805h0.002
		c0,6.873,4.56,10.234,8.96,10.236c4.481,0,7.916-1.646,10.756-4.932c4.482-4.932,6.425-12.697,6.425-17.479
		c0-0.113-0.013-0.217-0.016-0.33c0.896-1.115,4.396-4.299,5.241-4.299c0.674,0,0.974,0.447,0.974,1.045
		c0,1.119-2.091,5.826-3.812,10.457h0.027l-5.18,13.891c-0.227,0.598,0.148,0.896,0.601,0.896h4.704c0.6,0,0.973-0.148,1.119-0.598
		l2.465-6.424c1.196-2.688,2.393-4.777,3.438-6.273c4.332-6.273,10.157-12.547,11.948-12.547c0.974,0,1.644,0.598,1.568,1.494
		c0,1.045-1.867,5.975-3.81,11.201l-4.707,12.4c-0.149,0.445,0.146,0.746,0.748,0.746h4.704c0.599,0,0.972-0.148,1.12-0.598
		l2.314-6.424c1.047-2.539,2.391-4.48,2.838-5.229c4.631-7.021,10.609-13.744,12.398-13.744c1.047,0,1.567,0.598,1.567,1.494
		c0,1.195-0.896,3.734-3.213,9.561c-2.837,7.172-4.479,11.803-4.479,13.445c0,1.045,0.896,2.242,2.541,2.242
		c6.869,0,13.143-8.666,13.44-9.113c0.131-0.6,0.131-0.75-0.17-1.049h0.01L246.557,32.279z M188.447,31.459h-0.007
		c-2.909,4.855-5.601,6.947-8.51,6.947c-1.645,0-3.136-1.494-3.136-3.512c0-2.986,1.491-7.469,3.957-11.652
		c3.661-6.123,6.5-8.738,9.562-8.738c2.165,0,3.21,1.719,3.21,3.359c0.011,2.691-2.31,8.891-5.069,13.596H188.447z"/>
	<path id="mc-commons-c_2_" fill="#FFFFFF" d="M169.787,35.27c0.298,0.146,0.446,0.299,0.147,0.746
		c-1.119,1.645-5.976,6.424-11.503,6.424c-2.987,0-6.723-2.314-6.723-7.395c0-10.459,8.142-24.426,17.402-24.426
		c3.884,0,5.153,2.838,5.153,4.184c0,2.092-1.643,3.734-3.137,3.734c-1.195,0-2.093-0.449-2.539-1.791
		c-0.45-1.047-1.12-2.242-2.316-2.242c-1.643,0-3.062,1.793-4.479,5.08c-1.867,4.482-2.914,9.113-2.914,13.146
		c0,3.734,1.121,5.377,3.062,5.377c2.392,0,5.305-2.238,6.198-3.285c0.151-0.299,0.45-0.449,0.601-0.299l1.05,0.746H169.787z"/>
</g>
<g id="mc-media_2_">
	<path id="mc-media-a_2_" fill="#FFFFFF" d="M132.697,23.59c1.181-0.152,1.972-0.646,2.369-1.482
		c0.229-0.459,0.342-1.117,0.342-1.979c0-1.758-0.621-3.033-1.864-3.83c-1.246-0.791-3.028-1.188-5.347-1.188
		c-2.682,0-4.582,0.729-5.703,2.182c-0.627,0.807-1.036,2.002-1.227,3.592h-4.8c0.094-3.783,1.316-6.414,3.667-7.895
		c2.349-1.48,5.071-2.219,8.176-2.219c3.596,0,6.516,0.686,8.76,2.055c2.228,1.373,3.338,3.506,3.338,6.4v17.631
		c0,0.531,0.11,0.961,0.329,1.283c0.221,0.322,0.684,0.484,1.389,0.484c0.228,0,0.482-0.014,0.771-0.043
		c0.287-0.029,0.591-0.072,0.914-0.129v3.799c-0.8,0.23-1.41,0.371-1.828,0.428c-0.419,0.061-0.991,0.086-1.714,0.086
		c-1.771,0-3.059-0.627-3.857-1.885c-0.418-0.666-0.715-1.607-0.886-2.828c-1.047,1.371-2.554,2.562-4.514,3.57
		c-1.962,1.01-4.125,1.516-6.486,1.516c-2.839,0-5.155-0.861-6.957-2.584c-1.799-1.721-2.7-3.875-2.7-6.463
		c0-2.832,0.888-5.033,2.657-6.592c1.772-1.559,4.098-2.52,6.973-2.881l8.211-1.029H132.697z M121.867,37.49
		c1.084,0.854,2.371,1.281,3.855,1.281c1.811,0,3.562-0.42,5.258-1.256c2.855-1.389,4.286-3.658,4.286-6.816v-4.135
		c-0.63,0.398-1.438,0.732-2.424,1.002c-0.988,0.268-1.96,0.459-2.91,0.57l-3.106,0.398c-1.86,0.248-3.265,0.639-4.2,1.17
		c-1.593,0.893-2.388,2.318-2.388,4.273c-0.011,1.484,0.539,2.652,1.619,3.51h0.01V37.49z"/>
	<path id="mc-media-i_2_" fill="#FFFFFF" d="M106.807,0.141h5.229v5.83h-5.229V0.141z M106.807,11.66h5.229v30.455h-5.229V11.656
		V11.66z"/>
	<path id="mc-media-d_2_" fill="#FFFFFF" d="M94.597,12.459c0.911,0.572,1.944,1.572,3.103,3V0h4.942v42.111h-4.629v-4.256
		c-1.194,1.885-2.61,3.246-4.242,4.086c-1.63,0.836-3.499,1.256-5.604,1.256c-3.396,0-6.338-1.436-8.822-4.299
		c-2.485-2.867-3.729-6.684-3.729-11.443c0-4.457,1.133-8.316,3.4-11.586c2.268-3.266,5.506-4.898,9.719-4.898
		c2.32,0,4.28,0.494,5.86,1.484L94.597,12.459z M83.107,35.4c1.384,2.209,3.601,3.312,6.652,3.312c2.37,0,4.313-1.021,5.84-3.072
		c1.526-2.045,2.288-4.982,2.288-8.811c0-3.867-0.784-6.729-2.357-8.586c-1.572-1.857-3.516-2.785-5.828-2.785
		c-2.578,0-4.666,0.99-6.269,2.971c-1.601,1.98-2.399,4.896-2.399,8.742c0.01,3.291,0.7,6.031,2.08,8.24L83.107,35.4z"/>
	<path id="mc-media-e_2_" fill="#FFFFFF" d="M65.307,12.359c2.023,1.02,3.568,2.34,4.629,3.959c1.021,1.543,1.703,3.342,2.045,5.398
		c0.303,1.41,0.453,3.656,0.453,6.742H50.178c0.096,3.113,0.82,5.611,2.184,7.492c1.36,1.881,3.469,2.822,6.32,2.822
		c2.666,0,4.792-0.891,6.38-2.67c0.888-1.033,1.517-2.23,1.888-3.59h5.059c-0.133,1.125-0.576,2.377-1.329,3.76
		c-0.752,1.381-1.591,2.51-2.519,3.385c-1.552,1.521-3.469,2.553-5.757,3.086c-1.229,0.305-2.616,0.457-4.168,0.457
		c-3.784,0-6.991-1.387-9.625-4.158c-2.631-2.77-3.944-6.65-3.944-11.641c0-4.914,1.323-8.904,3.976-11.971
		c2.649-3.066,6.112-4.602,10.392-4.602c2.16-0.01,4.25,0.5,6.28,1.52L65.307,12.359z M67.147,24.369
		c-0.208-2.227-0.688-4.008-1.443-5.342c-1.396-2.477-3.729-3.713-6.998-3.713c-2.345,0-4.308,0.854-5.895,2.557
		c-1.586,1.705-2.427,3.873-2.521,6.5l16.851-0.01L67.147,24.369z"/>
	<path id="mc-media-m_2_" fill="#FFFFFF" d="M0.006,11.51h5.087v4.344c1.219-1.506,2.323-2.602,3.313-3.285
		c1.694-1.164,3.617-1.744,5.771-1.744c2.438,0,4.398,0.6,5.885,1.799c0.838,0.689,1.602,1.697,2.285,3.029
		c1.145-1.639,2.484-2.852,4.027-3.643s3.276-1.188,5.199-1.188c4.115,0,6.916,1.486,8.4,4.457c0.799,1.6,1.199,3.754,1.199,6.459
		v20.369h-5.344V20.852c0-2.037-0.508-3.438-1.527-4.199s-2.262-1.143-3.729-1.143c-2.021,0-3.759,0.676-5.215,2.027
		c-1.456,1.354-2.188,3.607-2.188,6.771v17.799h-5.229V22.137c0-2.076-0.248-3.59-0.742-4.543c-0.783-1.43-2.238-2.143-4.371-2.143
		c-1.943,0-3.711,0.752-5.301,2.256c-1.591,1.504-2.386,4.23-2.386,8.174v16.227H0v-30.6h0.01L0.006,11.51z"/>
</g>
<path fill="none" stroke="#FFFFFF" stroke-miterlimit="10" d="M412.666,3.388"/>
<path fill="none" stroke="#FFFFFF" stroke-miterlimit="10" d="M412.666,3.388"/>
<path fill="none" stroke="#FFFFFF" stroke-miterlimit="10" d="M412.666,3.388"/>
<path fill="none" stroke="#FFFFFF" stroke-miterlimit="10" d="M412.666,3.388"/>
<path fill="none" stroke="#FFFFFF" stroke-miterlimit="10" d="M412.666,3.388"/>
</svg>
